<?xml version="1.0" encoding="utf-8"?>
<!-- Generator: Adobe Illustrator 20.1.0, SVG Export Plug-In . SVG Version: 6.00 Build 0)  -->
<svg version="1.1" id="Capa_1" xmlns="http://www.w3.org/2000/svg" xmlns:xlink="http://www.w3.org/1999/xlink" x="0px" y="0px"
	 viewBox="0 0 2000 1000" style="enable-background:new 0 0 2000 1000;" xml:space="preserve">
<style type="text/css">
	.st0{fill:#333333;}
</style>
<g>
	<g>
		<g>
			<path class="st0" d="M252.5,223.9c0.7,0.6,1.1,1.6,1.1,2.8s-0.4,2.1-1.1,2.8c-0.7,0.6-1.8,1-3.1,1h-2v4.2h-2.1v-11.7h4.1
				C250.8,222.9,251.8,223.3,252.5,223.9z M249.4,228.5c0.7,0,1.2-0.2,1.5-0.5c0.3-0.3,0.5-0.8,0.5-1.3s-0.2-1-0.5-1.4
				s-0.8-0.5-1.5-0.5h-2v3.7H249.4z"/>
			<path class="st0" d="M264.5,226.5c0,0.8-0.2,1.5-0.7,2.1c-0.5,0.6-1.1,1-2,1.2l3.1,4.8h-2.8l-2.6-4.6h-1.6v4.6h-2.1v-11.7h4.3
				c1.4,0,2.5,0.3,3.2,1C264.1,224.6,264.5,225.4,264.5,226.5z M259.9,228.6c0.8,0,1.4-0.2,1.8-0.5s0.6-0.8,0.6-1.4
				c0-0.6-0.2-1-0.5-1.4c-0.4-0.4-0.9-0.5-1.6-0.5h-2.2v3.9H259.9z"/>
			<path class="st0" d="M267.4,222.9h2.1v11.7h-2.1V222.9z"/>
			<path class="st0" d="M275.9,222.9l3.2,6.9l3.2-6.9h2.9v11.7h-2.1v-8.9l-3.3,7.6h-1.4l-3.4-7.8v9.1h-2.1v-11.7H275.9z"/>
			<path class="st0" d="M291.3,222.9h2.7l3.8,11.7h-2.2l-0.8-2.5h-4.3l-0.8,2.5h-2.2L291.3,222.9z M291,230.5h3.3l-1.6-5L291,230.5z
				"/>
			<path class="st0" d="M308.6,226.5c0,0.8-0.2,1.5-0.7,2.1c-0.5,0.6-1.1,1-2,1.2l3.1,4.8h-2.8l-2.6-4.6H302v4.6h-2.1v-11.7h4.3
				c1.4,0,2.5,0.3,3.2,1C308.2,224.6,308.6,225.4,308.6,226.5z M304,228.6c0.8,0,1.4-0.2,1.8-0.5s0.6-0.8,0.6-1.4
				c0-0.6-0.2-1-0.5-1.4c-0.4-0.4-0.9-0.5-1.6-0.5H302v3.9H304z"/>
			<path class="st0" d="M312.6,222.9l2.6,4.7l2.7-4.7h2.5l-4.2,6.9v4.8h-2.1v-4.8l-4-6.9H312.6z"/>
			<path class="st0" d="M325.3,222.9h9.4v1.8h-3.6v9.8H329v-9.8h-3.6V222.9z"/>
			<path class="st0" d="M337.6,222.9l2.6,4.7l2.7-4.7h2.5l-4.2,6.9v4.8h-2.1v-4.8l-4-6.9H337.6z"/>
			<path class="st0" d="M354.5,223.9c0.7,0.6,1.1,1.6,1.1,2.8s-0.4,2.1-1.1,2.8c-0.7,0.6-1.8,1-3.1,1h-2v4.2h-2.1v-11.7h4.1
				C352.7,222.9,353.8,223.3,354.5,223.9z M351.4,228.5c0.7,0,1.2-0.2,1.5-0.5c0.3-0.3,0.5-0.8,0.5-1.3s-0.2-1-0.5-1.4
				s-0.8-0.5-1.5-0.5h-2v3.7H351.4z"/>
			<path class="st0" d="M362.3,222.7c0.8,0,1.5,0.1,2.1,0.4c0.6,0.3,1.2,0.6,1.7,1.1c1,1.1,1.5,2.6,1.5,4.5c0,2-0.5,3.5-1.5,4.6
				c-0.9,1-2.2,1.5-3.8,1.5c-1.6,0-2.9-0.5-3.8-1.5c-1-1.1-1.5-2.6-1.5-4.6c0-2,0.5-3.5,1.5-4.6
				C359.4,223.2,360.7,222.7,362.3,222.7z M365.4,228.8c0-1.3-0.3-2.4-0.8-3.1s-1.3-1.1-2.3-1.1c-0.9,0-1.7,0.4-2.3,1.1
				c-0.6,0.7-0.8,1.8-0.8,3.1c0,1.3,0.3,2.4,0.8,3.1c0.6,0.7,1.3,1.1,2.3,1.1c0.9,0,1.7-0.4,2.3-1.1
				C365.1,231.2,365.4,230.1,365.4,228.8z"/>
			<path class="st0" d="M377.3,232.8c-0.5,1.4-1.5,2.1-2.9,2.1c-1.5,0-2.7-0.6-3.6-1.7c-1-1.1-1.5-2.6-1.5-4.4
				c0-1.9,0.5-3.4,1.6-4.5c1-1.1,2.3-1.6,3.9-1.6c1.1,0,2,0.2,2.7,0.7c0.7,0.5,1.3,1.2,1.7,2.2l-2.2,0.5c-0.6-1-1.4-1.5-2.4-1.5
				c-0.9,0-1.6,0.4-2.2,1.1c-0.6,0.8-0.9,1.8-0.9,3.1c0,1.2,0.3,2.2,0.8,3c0.5,0.7,1.3,1.1,2.2,1.1c0.8,0,1.4-0.2,1.9-0.7
				c0.5-0.5,0.8-1.2,0.8-2.1V230l-2.6-0.1v-1.4h4.7v6h-1.7L377.3,232.8z"/>
			<path class="st0" d="M391,226.5c0,0.8-0.2,1.5-0.7,2.1c-0.5,0.6-1.1,1-2,1.2l3.1,4.8h-2.8l-2.6-4.6h-1.6v4.6h-2.1v-11.7h4.3
				c1.4,0,2.5,0.3,3.2,1C390.6,224.6,391,225.4,391,226.5z M386.4,228.6c0.8,0,1.4-0.2,1.8-0.5s0.6-0.8,0.6-1.4c0-0.6-0.2-1-0.5-1.4
				c-0.4-0.4-0.9-0.5-1.6-0.5h-2.2v3.9H386.4z"/>
			<path class="st0" d="M396.6,222.9h2.7l3.8,11.7h-2.2l-0.8-2.5h-4.3l-0.8,2.5h-2.2L396.6,222.9z M396.2,230.5h3.3l-1.6-5
				L396.2,230.5z"/>
			<path class="st0" d="M412.3,223.9c0.7,0.6,1.1,1.6,1.1,2.8s-0.4,2.1-1.1,2.8c-0.7,0.6-1.8,1-3.1,1h-2v4.2h-2.1v-11.7h4.1
				C410.5,222.9,411.6,223.3,412.3,223.9z M409.2,228.5c0.7,0,1.2-0.2,1.5-0.5c0.3-0.3,0.5-0.8,0.5-1.3s-0.2-1-0.5-1.4
				s-0.8-0.5-1.5-0.5h-2v3.7H409.2z"/>
			<path class="st0" d="M417.7,222.9v4.9h5.1v-4.9h2.1v11.7h-2.1v-5h-5.1v5h-2.1v-11.7H417.7z"/>
			<path class="st0" d="M429.4,222.9l2.6,4.7l2.7-4.7h2.5l-4.2,6.9v4.8h-2.1v-4.8l-4-6.9H429.4z"/>
		</g>
		<g>
			<rect x="243.7" y="278.1" class="st0" width="676.9" height="3.2"/>
		</g>
		<g>
			<path class="st0" d="M1087.3,226.2c-0.2-1-0.9-1.5-2.2-1.5c-0.6,0-1.1,0.1-1.4,0.4c-0.3,0.2-0.5,0.5-0.5,0.9s0.1,0.6,0.3,0.8
				c0.2,0.2,0.6,0.4,1,0.5l2.5,1c0.9,0.3,1.5,0.8,2,1.3c0.5,0.5,0.7,1.1,0.7,1.9c0,1.1-0.4,1.9-1.2,2.5s-1.9,0.9-3.4,0.9
				c-1.3,0-2.3-0.3-3.2-1c-0.9-0.7-1.4-1.7-1.4-3h2.1c0,1,0.5,1.6,1.5,1.8c0.3,0.1,0.7,0.1,1.2,0.1s0.9-0.1,1.4-0.4
				c0.4-0.2,0.6-0.6,0.6-1s-0.1-0.7-0.3-1c-0.2-0.2-0.6-0.4-1.1-0.6l-2.3-0.9c-0.9-0.3-1.6-0.8-2.1-1.2c-0.5-0.5-0.7-1.1-0.7-1.9
				c0-1,0.4-1.7,1.1-2.3c0.8-0.6,1.8-0.9,3.1-0.9c1.3,0,2.3,0.3,3,0.9c0.7,0.6,1.1,1.5,1.2,2.5H1087.3z"/>
			<path class="st0" d="M1092.6,222.9h7.5v1.8h-5.4v3.1h5.1v1.8h-5.1v3.1h5.4v1.9h-7.5V222.9z"/>
			<path class="st0" d="M1107.3,222.7c0.7,0,1.3,0.1,1.9,0.3c0.5,0.2,1,0.4,1.4,0.7c0.8,0.6,1.2,1.5,1.5,2.6l-2.3,0.4
				c-0.2-0.6-0.5-1.1-0.9-1.5s-0.9-0.6-1.5-0.6c-0.8,0-1.5,0.3-2,1c-0.5,0.7-0.8,1.8-0.8,3.1s0.2,2.3,0.7,3.1c0.5,0.7,1.1,1.1,2,1.1
				s1.5-0.2,1.9-0.6c0.4-0.4,0.6-0.9,0.6-1.6h2.3c0,1.3-0.4,2.3-1.3,3s-2,1.1-3.4,1.1c-1.5,0-2.8-0.5-3.7-1.6
				c-0.9-1.1-1.4-2.6-1.4-4.5c0-1.9,0.5-3.4,1.4-4.5C1104.7,223.2,1105.9,222.7,1107.3,222.7z"/>
			<path class="st0" d="M1119,222.7c0.8,0,1.5,0.1,2.1,0.4c0.6,0.3,1.2,0.6,1.7,1.1c1,1.1,1.5,2.6,1.5,4.5c0,2-0.5,3.5-1.5,4.6
				c-0.9,1-2.2,1.5-3.8,1.5c-1.6,0-2.9-0.5-3.8-1.5c-1-1.1-1.5-2.6-1.5-4.6c0-2,0.5-3.5,1.5-4.6
				C1116.1,223.2,1117.4,222.7,1119,222.7z M1122.1,228.8c0-1.3-0.3-2.4-0.8-3.1c-0.6-0.7-1.3-1.1-2.3-1.1s-1.7,0.4-2.3,1.1
				c-0.6,0.7-0.8,1.8-0.8,3.1c0,1.3,0.3,2.4,0.8,3.1c0.6,0.7,1.3,1.1,2.3,1.1s1.7-0.4,2.3-1.1
				C1121.9,231.2,1122.1,230.1,1122.1,228.8z"/>
			<path class="st0" d="M1129.1,222.9l5.1,8.3v-8.3h2.1v11.7h-2.2l-5.3-8.6v8.6h-2.1v-11.7H1129.1z"/>
			<path class="st0" d="M1143.5,222.9c1.8,0,3.2,0.5,4.3,1.6c1.1,1.1,1.7,2.5,1.7,4.3c0,1.8-0.6,3.2-1.7,4.2
				c-1.1,1.1-2.5,1.6-4.3,1.6h-3.8v-11.7H1143.5z M1141.9,232.7h1.7c1.1,0,2-0.4,2.7-1.1c0.6-0.7,1-1.6,1-2.8c0-1.2-0.3-2.1-1-2.8
				c-0.7-0.7-1.6-1.1-2.7-1.1h-1.7V232.7z"/>
			<path class="st0" d="M1154.8,222.9h2.7l3.8,11.7h-2.2l-0.8-2.5h-4.3l-0.8,2.5h-2.2L1154.8,222.9z M1154.5,230.5h3.3l-1.6-5
				L1154.5,230.5z"/>
			<path class="st0" d="M1172.1,226.5c0,0.8-0.2,1.5-0.7,2.1c-0.5,0.6-1.1,1-2,1.2l3.1,4.8h-2.8l-2.6-4.6h-1.6v4.6h-2.1v-11.7h4.3
				c1.4,0,2.5,0.3,3.2,1C1171.7,224.6,1172.1,225.4,1172.1,226.5z M1167.5,228.6c0.8,0,1.4-0.2,1.8-0.5c0.4-0.4,0.6-0.8,0.6-1.4
				c0-0.6-0.2-1-0.5-1.4s-0.9-0.5-1.6-0.5h-2.2v3.9H1167.5z"/>
			<path class="st0" d="M1176.1,222.9l2.6,4.7l2.7-4.7h2.5l-4.2,6.9v4.8h-2.1v-4.8l-4-6.9H1176.1z"/>
			<path class="st0" d="M1188.8,222.9h9.4v1.8h-3.6v9.8h-2.1v-9.8h-3.6V222.9z"/>
			<path class="st0" d="M1201.1,222.9l2.6,4.7l2.7-4.7h2.5l-4.2,6.9v4.8h-2.1v-4.8l-4-6.9H1201.1z"/>
			<path class="st0" d="M1218,223.9c0.7,0.6,1.1,1.6,1.1,2.8s-0.4,2.1-1.1,2.8s-1.8,1-3.1,1h-2v4.2h-2.1v-11.7h4.1
				C1216.2,222.9,1217.3,223.3,1218,223.9z M1214.9,228.5c0.7,0,1.2-0.2,1.5-0.5c0.3-0.3,0.5-0.8,0.5-1.3s-0.2-1-0.5-1.4
				s-0.8-0.5-1.5-0.5h-2v3.7H1214.9z"/>
			<path class="st0" d="M1225.8,222.7c0.8,0,1.5,0.1,2.1,0.4c0.6,0.3,1.2,0.6,1.7,1.1c1,1.1,1.5,2.6,1.5,4.5c0,2-0.5,3.5-1.5,4.6
				c-0.9,1-2.2,1.5-3.8,1.5c-1.6,0-2.9-0.5-3.8-1.5c-1-1.1-1.5-2.6-1.5-4.6c0-2,0.5-3.5,1.5-4.6
				C1222.9,223.2,1224.2,222.7,1225.8,222.7z M1228.9,228.8c0-1.3-0.3-2.4-0.8-3.1c-0.6-0.7-1.3-1.1-2.3-1.1c-0.9,0-1.7,0.4-2.3,1.1
				s-0.8,1.8-0.8,3.1c0,1.3,0.3,2.4,0.8,3.1c0.6,0.7,1.3,1.1,2.3,1.1c0.9,0,1.7-0.4,2.3-1.1C1228.6,231.2,1228.9,230.1,1228.9,228.8
				z"/>
			<path class="st0" d="M1240.8,232.8c-0.5,1.4-1.5,2.1-2.9,2.1c-1.5,0-2.7-0.6-3.6-1.7c-1-1.1-1.5-2.6-1.5-4.4
				c0-1.9,0.5-3.4,1.6-4.5c1-1.1,2.3-1.6,3.9-1.6c1.1,0,2,0.2,2.7,0.7c0.7,0.5,1.3,1.2,1.7,2.2l-2.2,0.5c-0.6-1-1.4-1.5-2.4-1.5
				c-0.9,0-1.6,0.4-2.2,1.1c-0.6,0.8-0.9,1.8-0.9,3.1c0,1.2,0.3,2.2,0.8,3c0.5,0.7,1.3,1.1,2.2,1.1c0.8,0,1.4-0.2,1.9-0.7
				c0.5-0.5,0.8-1.2,0.8-2.1V230l-2.6-0.1v-1.4h4.7v6h-1.7L1240.8,232.8z"/>
			<path class="st0" d="M1254.5,226.5c0,0.8-0.2,1.5-0.7,2.1c-0.5,0.6-1.1,1-2,1.2l3.1,4.8h-2.8l-2.6-4.6h-1.6v4.6h-2.1v-11.7h4.3
				c1.4,0,2.5,0.3,3.2,1C1254.1,224.6,1254.5,225.4,1254.5,226.5z M1249.9,228.6c0.8,0,1.4-0.2,1.8-0.5c0.4-0.4,0.6-0.8,0.6-1.4
				c0-0.6-0.2-1-0.5-1.4s-0.9-0.5-1.6-0.5h-2.2v3.9H1249.9z"/>
			<path class="st0" d="M1260.1,222.9h2.7l3.8,11.7h-2.2l-0.8-2.5h-4.3l-0.8,2.5h-2.2L1260.1,222.9z M1259.7,230.5h3.3l-1.6-5
				L1259.7,230.5z"/>
			<path class="st0" d="M1275.8,223.9c0.7,0.6,1.1,1.6,1.1,2.8s-0.4,2.1-1.1,2.8c-0.7,0.6-1.8,1-3.1,1h-2v4.2h-2.1v-11.7h4.1
				C1274,222.9,1275.1,223.3,1275.8,223.9z M1272.7,228.5c0.7,0,1.2-0.2,1.5-0.5c0.3-0.3,0.5-0.8,0.5-1.3s-0.2-1-0.5-1.4
				s-0.8-0.5-1.5-0.5h-2v3.7H1272.7z"/>
			<path class="st0" d="M1281.2,222.9v4.9h5.1v-4.9h2.1v11.7h-2.1v-5h-5.1v5h-2.1v-11.7H1281.2z"/>
			<path class="st0" d="M1292.9,222.9l2.6,4.7l2.7-4.7h2.5l-4.2,6.9v4.8h-2.1v-4.8l-4-6.9H1292.9z"/>
		</g>
		<g>
			<rect x="1079.4" y="278.1" class="st0" width="676.9" height="3.2"/>
		</g>
	</g>
	<g>
		<path class="st0" d="M334.4,533.1l-15.3-45.4h-41.6l-16.2,45.4h15.8v4h-32.1v-4h9.9l53.6-144.3h17.2l52.9,144.3h9.7v4h-68.7v-4
			H334.4z M299.1,428.1l-19.7,55h38L299.1,428.1z"/>
		<path class="st0" d="M496.7,426.2l5.9-3.6c0.8-4.3-0.8-6.5-5-6.5c-6,0-9,4.6-9,13.9c0,3.6,0.5,7.8,1.5,12.6
			c10.6,7.1,16,16.3,16,27.4s-3.9,19.8-11.5,25.9c-7.7,6.2-18.1,9.2-31.3,9.2c-5.5,0-11.1-0.6-17-1.7c-6.2,3.9-9.2,6.9-9.2,8.8
			c0,2,4.5,2.9,13.4,2.9h21.4c31.8,0,47.7,11.4,47.7,34.2c0,12.3-4.8,22.1-14.4,29.3c-9.6,7.2-24.5,10.8-44.8,10.8
			c-34.6,0-51.9-7.5-51.9-22.5c0-8.1,5.4-13.7,16.2-16.8l12.6,5.7c-1.1,4.1-1.7,7.9-1.7,11.5c0,12,9,18.1,26.9,18.1
			c10.9,0,19.3-2,25.2-6.1c5.9-4.1,8.8-9.1,8.8-15.1c0-6-1.8-10-5.4-12.1c-3.6-2-10.7-3-21.3-3h-20.4c-11.3,0-19.5-1.9-24.4-5.7
			c-4.9-3.8-7.4-8.4-7.4-14c0-5.5,1.7-10.1,5.2-13.9c3.5-3.7,9.7-8.3,18.7-13.8c-16.2-4.6-24.4-15.3-24.4-31.9
			c0-10.5,3.8-19,11.3-25.4c7.6-6.4,18.9-9.7,34-9.7c9.1,0,16.9,1.8,23.3,5.2c-0.8-3.8-1.3-7.2-1.3-10.3c0-7.8,2.1-13.5,6.3-17
			c4.2-3.5,8.9-5.2,14.1-5.2c5.2,0,9.3,1.4,12.5,4.1c3.1,2.7,4.7,6.5,4.7,11.2c0,4.8-1.3,8.3-3.8,10.6s-5.6,3.5-9.1,3.5
			c-3.6,0-6.5-0.9-8.8-2.8C498.1,432.4,496.9,429.7,496.7,426.2z M452.2,465.5v11.3c0,9.4,0.8,15.8,2.4,19.1c1.6,3.4,4.1,5,7.4,5
			c3.3,0,5.7-1.6,7.1-4.9c1.5-3.3,2.2-10,2.2-20.3v-10.3c0-10.9-0.7-18.1-2.1-21.5c-1.4-3.4-3.7-5.1-7-5.1c-3.3,0-5.8,1.8-7.5,5.4
			C453.1,447.8,452.2,454.9,452.2,465.5z"/>
		<path class="st0" d="M611.8,537.1v-3.8h9.7l-23.7-48.7l-4,1v47.7h9.7v3.8h-60.3v-3.8h11.5V383.4h-12.4v-3.8h51.5v101.8l3.4-1.3
			l47.2-39.3h-19.7v-3.8H666v3.8h-14.7l-25,21.2l36.3,71.2h7.6v3.8H611.8z"/>
		<path class="st0" d="M814,537.1h-47.9l-2.3-15.3c-2.2,5.6-5.6,9.9-10,12.9c-4.4,3-11,4.5-19.6,4.5c-21.7,0-32.5-11.7-32.5-35.1
			v-63.2h-11.8v-3.8h50.8v72c0,8.4,0.6,13.9,1.8,16.6c1.2,2.7,3.6,4,7.1,4s6.8-2.2,9.6-6.5c2.8-4.3,4.2-10.4,4.2-18.1v-64.3h-9.7
			v-3.8h48.7v96.2H814V537.1z"/>
		<path class="st0" d="M838.4,437.2h51.5v96.2h11.8v3.8h-62.4v-3.8h11.5v-92.4h-12.4V437.2z M870.1,422.7c-7.4,0-12.7-1.9-15.9-5.7
			c-3.2-3.8-4.7-8.5-4.7-14.1c0-5.6,1.7-10.2,5.1-13.9c3.4-3.6,8.6-5.5,15.6-5.5c7,0,12.3,1.6,16,4.9c3.6,3.3,5.5,8,5.5,14.1
			s-1.8,11-5.2,14.6C883,420.9,877.5,422.7,870.1,422.7z"/>
	</g>
	<g>
		<path d="M1086.7,391.6h2.9l6.3,18.9h-2.5l-1.6-4.8h-7.5l-1.6,4.8h-2.5L1086.7,391.6z M1085,403.8h6.3l-3.1-9.3L1085,403.8z"/>
		<path d="M1103.9,391.6h7c2,0,3.5,0.5,4.6,1.4c1.1,0.9,1.6,2.1,1.6,3.5c0,1.1-0.3,2-0.9,2.8c-0.6,0.8-1.5,1.3-2.7,1.6
			c1.2,0.2,2.1,0.7,2.8,1.5c0.7,0.8,1.1,1.8,1.1,2.8c0,2.3-1.1,3.9-3.4,4.7c-0.8,0.3-1.9,0.5-3.1,0.5h-7.1V391.6z M1106.3,400h4.6
			c1.2,0,2.1-0.3,2.8-0.9c0.7-0.6,1-1.4,1-2.4s-0.3-1.8-1-2.3c-0.7-0.6-1.6-0.8-2.8-0.8h-4.6V400z M1110.9,408.4
			c1.4,0,2.5-0.3,3.1-0.9s0.9-1.4,0.9-2.3s-0.3-1.7-1-2.3c-0.7-0.6-1.7-0.9-3-0.9h-4.6v6.3H1110.9z"/>
		<path d="M1133.3,391.2c2,0,3.6,0.5,4.9,1.5c1.2,1,2.1,2.3,2.5,3.9l-2.6,0.5c-0.4-1.2-1-2.1-1.9-2.8c-0.8-0.7-1.8-1-3-1
			c-1.6,0-2.9,0.7-3.9,2c-1,1.3-1.6,3.2-1.6,5.5s0.5,4.2,1.4,5.7c0.9,1.4,2.3,2.1,4.1,2.1c1.5,0,2.7-0.4,3.6-1.2s1.3-1.8,1.3-3.1
			h2.6c0,2-0.7,3.6-2,4.7c-1.3,1.2-3.2,1.7-5.5,1.7c-2.4,0-4.2-0.9-5.7-2.7c-1.5-1.8-2.2-4.2-2.2-7.2c0-3,0.8-5.4,2.2-7.1
			C1129,392.1,1131,391.2,1133.3,391.2z"/>
		<path d="M1154.9,391.6c2.8,0,5.1,0.9,6.8,2.6s2.6,4,2.6,6.9c0,2.9-0.9,5.2-2.6,6.9s-4,2.6-6.8,2.6h-5.5v-18.9H1154.9z
			 M1151.7,408.4h3.2c2.1,0,3.8-0.7,5-2.1s1.9-3.2,1.9-5.3c0-2.1-0.6-3.9-1.9-5.3c-1.2-1.4-2.9-2.1-5-2.1h-3.2V408.4z"/>
		<path d="M1173.4,391.6h11.6v2h-9.2v6.3h8.7v2h-8.7v6.4h9.2v2.1h-11.6V391.6z"/>
		<path d="M1194.5,391.6h11.5v2h-9.1v6.3h8.5v2h-8.5v8.5h-2.4V391.6z"/>
		<path d="M1226.1,407.2c-0.8,2.4-2.5,3.6-4.9,3.6s-4.4-0.9-6-2.6c-1.6-1.8-2.3-4.1-2.3-7.1c0-3,0.8-5.4,2.5-7.1
			c1.7-1.8,3.8-2.6,6.3-2.6c1.5,0,2.8,0.3,3.9,0.9c1.1,0.6,2.1,1.6,2.9,2.9l-2.3,0.8c-1.3-1.6-2.8-2.4-4.6-2.4s-3.2,0.7-4.4,2.1
			c-1.2,1.4-1.8,3.3-1.8,5.5c0,2.3,0.5,4.1,1.6,5.5c1,1.4,2.4,2.1,4.2,2.1c1.4,0,2.6-0.5,3.5-1.4s1.3-2.4,1.3-4.3v-0.1l-4.7-0.2
			v-1.6h7v9.3h-1.9L1226.1,407.2z"/>
		<path d="M1240.3,391.6v8.3h9.3v-8.3h2.4v18.9h-2.4v-8.5h-9.3v8.5h-2.4v-18.9H1240.3z"/>
		<path d="M1262.2,391.6h2.4v18.9h-2.4V391.6z"/>
		<path d="M1280.1,409.4c-0.9,0.9-2.1,1.4-3.6,1.4c-1.4,0-3-0.4-4.5-1.3V407c1.4,1,2.7,1.4,3.9,1.4c1.2,0,2.1-0.3,2.5-0.9
			c0.4-0.6,0.7-1.5,0.7-2.6v-13.4h2.4V405C1281.5,407,1281,408.5,1280.1,409.4z"/>
		<path d="M1293.5,391.6v8.7l8.4-8.7h3.3l-8.2,8.5l8.8,10.4h-3.1l-7.3-8.7l-1.9,1.9v6.8h-2.4v-18.9H1293.5z"/>
		<path d="M1316,408.4h8.4v2.1h-10.8v-18.9h2.4V408.4z"/>
		<path d="M1335.2,391.6l6.4,12.8l6.3-12.8h3.3v18.9h-2.4v-15.5l-6.5,13.1h-1.6l-6.6-13.4v15.7h-2.4v-18.9H1335.2z"/>
		<path d="M1364.2,391.6l9.4,15.1v-15.1h2.4v18.9h-2.6l-9.5-15.4v15.4h-2.4v-18.9H1364.2z"/>
		<path d="M1392.9,391.2c2.4,0,4.4,0.8,5.9,2.5c1.5,1.7,2.3,4.1,2.3,7.3s-0.8,5.6-2.2,7.3s-3.5,2.5-5.9,2.5s-4.4-0.8-5.9-2.5
			s-2.2-4.1-2.2-7.2c0-3.2,0.7-5.6,2.2-7.3S1390.4,391.2,1392.9,391.2z M1392.9,393.4c-1.8,0-3.2,0.7-4.2,2c-1,1.3-1.5,3.2-1.5,5.7
			c0,2.5,0.5,4.4,1.5,5.6c1,1.3,2.4,1.9,4.2,1.9c1.8,0,3.2-0.6,4.2-1.9c1-1.3,1.5-3.2,1.5-5.6c0-2.5-0.5-4.4-1.5-5.7
			C1396,394,1394.6,393.4,1392.9,393.4z"/>
		<path d="M1420.6,393.1c1.1,1,1.6,2.5,1.6,4.2s-0.5,3.2-1.6,4.2c-1.1,1-2.7,1.5-4.8,1.5h-3.7v7.3h-2.4v-18.9h6.1
			C1417.9,391.6,1419.5,392.1,1420.6,393.1z M1415.8,401.1c1.3,0,2.3-0.3,3-1c0.7-0.7,1-1.6,1-2.7c0-1.1-0.3-2.1-1-2.8s-1.7-1-3-1
			h-3.7v7.5H1415.8z"/>
		<path d="M1445.5,414.9c-0.8,0.4-1.6,0.6-2.5,0.6c-1.7,0-3.2-0.9-4.4-2.7l-1.4-2c-2.4,0-4.4-0.9-5.8-2.6c-1.5-1.7-2.2-4.1-2.2-7.2
			c0-3.2,0.7-5.6,2.2-7.2s3.5-2.5,5.9-2.5c2.4,0,4.4,0.8,5.9,2.5c1.5,1.7,2.3,4.1,2.3,7.3c0,2.6-0.5,4.8-1.6,6.4
			c-1.1,1.6-2.5,2.6-4.3,3.1l0.9,1.3c0.6,0.8,1.3,1.2,2.1,1.2c0.9,0,1.8-0.2,2.9-0.8V414.9z M1437.3,393.4c-1.8,0-3.2,0.7-4.2,2
			c-1,1.3-1.5,3.2-1.5,5.7c0,2.5,0.5,4.4,1.5,5.6c1,1.3,2.4,1.9,4.2,1.9c1.8,0,3.2-0.6,4.2-1.9c1-1.3,1.5-3.2,1.5-5.6
			c0-2.5-0.5-4.4-1.5-5.7C1440.4,394,1439,393.4,1437.3,393.4z"/>
		<path d="M1467.5,397c0,1.6-0.4,2.8-1.2,3.8s-2.1,1.6-3.7,1.9l5.4,7.8h-3.1l-4.9-7.7h-3.3v7.7h-2.4v-18.9h6.6
			c2.1,0,3.7,0.5,4.9,1.5S1467.5,395.4,1467.5,397z M1460.8,401.1c1.4,0,2.5-0.3,3.2-1c0.7-0.7,1.1-1.6,1.1-2.7c0-1.1-0.4-2-1.1-2.7
			c-0.7-0.7-1.7-1-3.1-1h-4.2v7.5H1460.8z"/>
		<path d="M1487,396.1c-0.3-1.8-1.7-2.8-4-2.8c-1.3,0-2.2,0.3-2.9,0.8c-0.7,0.6-1,1.2-1,2s0.2,1.4,0.6,1.8c0.4,0.4,1.1,0.8,2,1
			l3.9,1.4c1.3,0.5,2.4,1.1,3.2,1.9c0.8,0.8,1.2,1.9,1.2,3.4c0,1.5-0.6,2.7-1.9,3.7c-1.2,1-2.9,1.5-5,1.5s-3.8-0.5-5.1-1.6
			c-1.3-1-2-2.5-2.1-4.4h2.3c0,1.2,0.4,2.2,1.3,2.9c0.9,0.7,2,1,3.4,1s2.5-0.3,3.3-0.9c0.8-0.6,1.2-1.3,1.2-2.2s-0.2-1.5-0.7-2
			s-1.2-0.9-2.2-1.2l-3.3-1.2c-1.6-0.5-2.7-1.1-3.5-1.9c-0.8-0.7-1.2-1.8-1.2-3.2c0-1.4,0.6-2.5,1.7-3.5c1.1-0.9,2.7-1.4,4.7-1.4
			c2,0,3.6,0.4,4.6,1.3c1.1,0.9,1.7,2.1,1.8,3.6H1487z"/>
		<path d="M1496.5,391.6h14.7v2h-6.1v16.8h-2.4v-16.8h-6.2V391.6z"/>
		<path d="M1520.5,391.6v12.1c0,1.8,0.4,3,1.3,3.8s2,1.2,3.5,1.2c1.4,0,2.6-0.4,3.5-1.2s1.3-2,1.3-3.8v-12.1h2.4v12.1
			c0,2.4-0.7,4.1-2,5.3c-1.3,1.2-3,1.8-5.2,1.8c-2.2,0-3.9-0.6-5.2-1.8c-1.3-1.2-1.9-3-1.9-5.3v-12.1H1520.5z"/>
		<path d="M1542.4,391.6l5.4,15.9l5.4-15.9h2.5l-6.7,18.9h-2.5l-6.7-18.9H1542.4z"/>
		<path d="M1563.5,391.6l4.6,15.7l4.6-13.7h1.6l4.6,13.7l5.3-15.7h2.6l-6.7,18.9h-2.5l-4.1-12.1l-4.3,12.1h-2.5l-6-18.9H1563.5z"/>
		<path d="M1609.3,410.4h-2.9l-5.5-7.5l-5.1,7.5h-2.9l6.7-9.4l-6.7-9.5h2.8l5.4,7.7l5-7.7h2.9l-6.5,9.5L1609.3,410.4z"/>
		<path d="M1618.1,391.6l5.1,8.7l5.2-8.7h2.8l-6.8,11.1v7.7h-2.4v-7.7l-6.7-11.1H1618.1z"/>
		<path d="M1637.8,408.3l10.9-14.5l-10.9-0.1v-2.2h13.9v2.1l-10.9,14.5l10.9,0.1v2.2h-13.9V408.3z"/>
	</g>
	<g>
		<path d="M1091.4,457.8c0-1.3-0.3-2.2-0.8-2.8s-1.3-0.8-2.4-0.8c-1,0-1.9,0.2-2.5,0.6c-0.6,0.4-0.9,1.1-0.9,1.9h-2.6
			c0-2.2,1.2-3.6,3.5-4.1c0.7-0.2,1.5-0.2,2.3-0.2c1.8,0,3.2,0.5,4.2,1.4s1.5,2.3,1.5,4.1v9.2h-2l-0.2-2.4c-0.9,1.8-2.5,2.7-4.8,2.7
			c-1.5,0-2.8-0.4-3.7-1.3c-0.9-0.9-1.4-1.9-1.4-3.2c0-1.3,0.5-2.3,1.5-3c1-0.7,2.3-1.1,3.9-1.1s3,0.3,4.4,0.8V457.8z M1091.4,461.1
			c-1.4-0.4-2.7-0.6-3.7-0.6c-1.1,0-1.9,0.2-2.6,0.6c-0.7,0.4-1,1-1,1.8c0,1.8,1,2.7,3.1,2.7c1.2,0,2.2-0.4,3-1.2
			C1090.9,463.5,1091.4,462.5,1091.4,461.1z"/>
		<path d="M1102.2,454.9c1-1.7,2.4-2.5,4.2-2.5s3.4,0.7,4.6,2.1c1.2,1.4,1.8,3.2,1.8,5.4s-0.6,4.1-1.9,5.5c-1.2,1.4-2.8,2.1-4.5,2.1
			c-1,0-1.8-0.2-2.6-0.7c-0.8-0.5-1.4-1.2-1.8-2.1l-0.5,2.5h-1.6v-20.4h2.4V454.9z M1106.3,454.5c-1.1,0-2.1,0.4-2.9,1.1
			s-1.2,1.7-1.2,3v2.3c0,1.3,0.4,2.4,1.2,3.2c0.8,0.8,1.7,1.2,2.9,1.2s2.1-0.5,2.9-1.5c0.8-1,1.2-2.3,1.2-3.9c0-1.6-0.4-2.9-1.2-3.9
			S1107.4,454.5,1106.3,454.5z"/>
		<path d="M1122.8,452.4c1.7,0,3,0.4,4,1.3s1.7,2,2,3.3l-2.4,0.2c-0.3-0.8-0.7-1.5-1.3-2c-0.6-0.5-1.2-0.7-1.9-0.7
			c-1.3,0-2.3,0.5-3.1,1.4c-0.8,1-1.2,2.3-1.2,3.9s0.4,3,1.2,4c0.8,1,1.7,1.5,2.9,1.5s2-0.3,2.6-0.8c0.6-0.5,0.9-1.3,0.9-2.3h2.4
			c0,1.5-0.5,2.8-1.6,3.7c-1.1,1-2.5,1.4-4.2,1.4c-1.8,0-3.4-0.7-4.6-2.1c-1.3-1.4-1.9-3.2-1.9-5.5c0-2.3,0.6-4.1,1.9-5.4
			C1119.6,453.1,1121.1,452.4,1122.8,452.4z"/>
		<path d="M1143.4,454.9v-8.2h2.3v20.4h-1.9l-0.3-2.4c-0.5,0.9-1.1,1.6-1.8,2c-0.8,0.5-1.6,0.7-2.5,0.7c-1.8,0-3.3-0.7-4.6-2.1
			c-1.2-1.4-1.8-3.2-1.8-5.5s0.6-4.1,1.8-5.4c1.2-1.4,2.7-2,4.6-2C1141.1,452.4,1142.5,453.2,1143.4,454.9z M1139.4,454.5
			c-1.2,0-2.1,0.5-2.9,1.5s-1.2,2.3-1.2,3.9c0,1.6,0.4,3,1.2,3.9c0.8,1,1.8,1.5,2.9,1.5s2.1-0.4,2.9-1.1s1.2-1.8,1.2-3v-2.3
			c0-1.3-0.4-2.4-1.2-3.2C1141.5,454.9,1140.5,454.5,1139.4,454.5z"/>
		<path d="M1157.4,465.5c2,0,3.1-0.9,3.4-2.6h2.4c-0.2,1.4-0.9,2.6-1.9,3.3c-1,0.8-2.4,1.2-3.9,1.2c-1.9,0-3.5-0.7-4.7-2.1
			c-1.2-1.4-1.8-3.2-1.8-5.5c0-2.3,0.6-4.1,1.8-5.5c1.2-1.4,2.8-2,4.8-2c2,0,3.5,0.8,4.5,2.3c1,1.6,1.3,3.5,1,5.7h-9.8
			c0,1.5,0.4,2.7,1.1,3.6C1155.1,465,1156.1,465.5,1157.4,465.5z M1159.2,454.7c-0.5-0.2-1-0.4-1.7-0.4c-1.2,0-2.2,0.4-2.9,1.2
			c-0.7,0.8-1.1,1.9-1.2,3.1h7.6C1161,456.6,1160.4,455.3,1159.2,454.7z"/>
		<path d="M1175.5,448.7c-0.7-0.3-1.2-0.4-1.6-0.4c-0.7,0-1.2,0.2-1.6,0.5c-0.4,0.3-0.6,0.9-0.6,1.8v2.2h3v1.6h-3v12.7h-2.3v-12.7
			h-2.4v-1.6h2.4v-2.2c0-1.4,0.4-2.5,1.2-3.1c0.8-0.7,1.7-1,2.7-1c1,0,1.9,0.1,2.7,0.4L1175.5,448.7z"/>
		<path d="M1179.2,466.7c-1.2-0.6-1.8-1.5-1.8-2.7c0-0.6,0.2-1.2,0.7-1.6c0.5-0.5,1.1-0.8,1.8-0.9c-1.1-1-1.6-2.2-1.6-3.8
			s0.6-2.8,1.7-3.8c1.1-1,2.4-1.4,3.9-1.4c1.5,0,2.8,0.4,3.9,1.1c0.1-1.1,0.6-1.9,1.3-2.5s1.6-1,2.8-1l-0.2,2.3
			c-1.8,0-2.7,0.7-2.8,2.2c0.7,0.9,1,1.9,1,3.1c0,1.5-0.6,2.8-1.7,3.8c-1.1,1-2.5,1.5-4.2,1.5c-1.1,0-2.2-0.2-3-0.7
			c-0.4,0.1-0.8,0.3-1.1,0.6c-0.3,0.3-0.5,0.7-0.5,1.2c0,1.1,0.9,1.6,2.6,1.6h5.6c1.3,0,2.4,0.3,3.2,0.9c0.8,0.6,1.2,1.4,1.2,2.4
			c0,1.5-0.8,2.8-2.3,4s-3.5,1.7-5.8,1.7s-4.2-0.4-5.5-1.3c-1.3-0.9-2-2-2-3.3c0-0.9,0.3-1.6,0.8-2.1
			C1177.7,467.3,1178.4,466.9,1179.2,466.7z M1178.8,469.8c0,0.8,0.4,1.4,1.2,2c0.8,0.5,2.1,0.8,3.8,0.8c1.7,0,3.1-0.4,4.2-1.1
			c1.1-0.7,1.7-1.6,1.7-2.6c0-0.5-0.2-0.9-0.5-1.2s-0.8-0.5-1.5-0.5h-5.8c-1,0-1.8,0.3-2.3,0.7C1179,468.4,1178.8,469,1178.8,469.8z
			 M1187.6,457.6c0-1-0.3-1.9-0.9-2.5c-0.6-0.6-1.5-1-2.6-1s-1.9,0.3-2.6,1c-0.6,0.7-0.9,1.5-0.9,2.5c0,1,0.3,1.9,0.9,2.6
			c0.6,0.7,1.5,1,2.6,1c1.1,0,1.9-0.3,2.6-1C1187.3,459.5,1187.6,458.6,1187.6,457.6z"/>
		<path d="M1198.5,455.4c1-2,2.5-3,4.8-3c1.7,0,3,0.6,4,1.7c1,1.1,1.4,2.7,1.4,4.6v8.4h-2.3v-8.4c0-1.4-0.3-2.4-1-3.1
			c-0.7-0.7-1.6-1.1-2.8-1.1c-1.2,0-2.2,0.5-2.9,1.5c-0.7,1-1.1,2.5-1.1,4.3v6.8h-2.4v-20.4h2.4V455.4z"/>
		<path d="M1216.2,449.4c-0.5,0-0.9-0.1-1.1-0.4c-0.3-0.3-0.4-0.6-0.4-1.1c0-0.5,0.1-0.8,0.4-1.1c0.3-0.3,0.6-0.4,1.1-0.4
			c0.5,0,0.9,0.1,1.2,0.4s0.4,0.6,0.4,1.1c0,0.4-0.1,0.8-0.4,1.1C1217.1,449.2,1216.7,449.4,1216.2,449.4z M1215,452.7h2.4v14.4
			h-2.4V452.7z"/>
		<path d="M1222.4,472.4c1.8,0,2.6-1.1,2.6-3.3v-16.4h2.4v16.4c0,2.7-0.9,4.4-2.7,5.1c-0.6,0.2-1.2,0.3-1.9,0.3
			c-1.2,0-2.6-0.4-4-1.1l0.1-2.1C1220.2,472,1221.4,472.4,1222.4,472.4z M1225.1,449c-0.3-0.3-0.4-0.6-0.4-1.1
			c0-0.5,0.1-0.8,0.4-1.1c0.3-0.3,0.6-0.4,1.1-0.4c0.5,0,0.9,0.1,1.2,0.4s0.4,0.6,0.4,1.1c0,0.4-0.1,0.8-0.4,1.1
			c-0.3,0.3-0.7,0.4-1.2,0.4C1225.8,449.4,1225.4,449.2,1225.1,449z"/>
		<path d="M1238.8,459.5l-1.9,1.6v6h-2.4v-20.4h2.4v11.9l6.9-5.8h3.3l-6.6,5.4l6.9,9h-2.9L1238.8,459.5z"/>
		<path d="M1252,446.7h2.4v20.4h-2.4V446.7z"/>
		<path d="M1263.3,455.5c0.9-2.1,2.6-3.1,4.8-3.1c1.2,0,2.3,0.3,3.1,0.9c0.8,0.6,1.5,1.5,1.8,2.5c0.9-2.3,2.6-3.5,5-3.5
			c1.7,0,3,0.6,4,1.7c0.9,1.1,1.4,2.7,1.4,4.6v8.4h-2.3v-8.4c0-1.4-0.3-2.4-1-3.1c-0.6-0.7-1.6-1.1-2.8-1.1s-2.2,0.5-2.8,1.5
			c-0.7,1-1,2.4-1,4.1v7h-2.3v-8.4c0-1.4-0.3-2.4-1-3.1c-0.6-0.7-1.6-1.1-2.8-1.1s-2.2,0.5-2.9,1.5c-0.7,1-1.1,2.3-1.2,4.1v7h-2.4
			v-14.3h2L1263.3,455.5z"/>
		<path d="M1291.9,455.5c0.9-2.1,2.6-3.1,4.8-3.1c1.7,0,3,0.6,4,1.7c0.9,1.1,1.4,2.7,1.4,4.6v8.4h-2.3v-8.4c0-1.4-0.3-2.4-1-3.1
			c-0.6-0.7-1.6-1.1-2.8-1.1s-2.2,0.5-2.9,1.5c-0.7,1-1.1,2.3-1.2,4.1v7h-2.4v-14.3h2L1291.9,455.5z"/>
		<path d="M1313.5,452.4c2,0,3.6,0.7,4.8,2c1.2,1.3,1.8,3.2,1.8,5.6c0,2.4-0.6,4.2-1.8,5.5c-1.2,1.3-2.8,2-4.8,2c-2,0-3.6-0.6-4.8-2
			c-1.2-1.3-1.8-3.1-1.8-5.5c0-2.4,0.6-4.3,1.8-5.6C1309.9,453.1,1311.5,452.4,1313.5,452.4z M1317.8,459.9c0-1.7-0.4-3-1.1-4
			c-0.7-1-1.8-1.5-3.2-1.5c-1.4,0-2.5,0.5-3.2,1.5c-0.7,1-1.1,2.3-1.1,4s0.3,3.1,1.1,4c0.7,1,1.7,1.5,3.1,1.5c1.4,0,2.5-0.5,3.2-1.5
			C1317.4,463,1317.8,461.6,1317.8,459.9z"/>
		<path d="M1327.5,455c0.9-1.7,2.3-2.6,4.2-2.6s3.4,0.7,4.7,2.1s1.9,3.2,1.9,5.5c0,2.3-0.6,4.1-1.9,5.4c-1.3,1.4-2.8,2.1-4.6,2.1
			c-1.8,0-3.2-0.7-4.1-2.1v8.8h-2.4v-21.4h2L1327.5,455z M1331.7,465.3c1.1,0,2.1-0.5,3-1.4c0.8-1,1.3-2.3,1.3-3.9s-0.4-3-1.2-4
			s-1.8-1.5-3-1.5s-2.1,0.4-2.8,1.1c-0.7,0.7-1.1,1.7-1.2,3v2.7c0,1.3,0.4,2.2,1.1,3C1329.6,465,1330.5,465.3,1331.7,465.3z"/>
		<path d="M1348.6,452.4c2,0,3.5,0.9,4.4,2.7l0.5-2.3h1.6v16.8c0,1,0.1,1.6,0.3,2c0.2,0.3,0.5,0.6,0.8,0.7c0.3,0.1,0.6,0.3,1.1,0.4
			l-0.8,1.8c-1.4-0.4-2.3-0.9-2.9-1.7c-0.6-0.8-0.9-1.9-0.9-3.4v-4.6c-0.8,1.7-2.2,2.6-4,2.6c-1.9,0-3.4-0.7-4.7-2.1
			c-1.3-1.4-1.9-3.2-1.9-5.4c0-2.3,0.6-4.1,1.9-5.5C1345.4,453.1,1346.9,452.4,1348.6,452.4z M1348.8,454.5c-1.2,0-2.1,0.5-3,1.5
			c-0.8,1-1.2,2.3-1.2,4s0.4,3,1.3,3.9c0.9,1,1.9,1.4,3,1.4c1.6,0,2.8-0.7,3.5-2.2c0.2-0.5,0.4-1,0.4-1.6v-2.7
			c0-1.3-0.4-2.4-1.1-3.1C1351,454.9,1350,454.5,1348.8,454.5z"/>
		<path d="M1367.7,454.8c-2.3,0-3.4,1.8-3.5,5.3v7h-2.4v-14.4h2.4v2.8c0.7-2,2-3,3.8-3c0.6,0,1.1,0.1,1.7,0.3l-0.1,2.3
			C1369,454.9,1368.4,454.8,1367.7,454.8z"/>
		<path d="M1374.7,453.5c1-0.7,2.4-1.1,4.1-1.1s3.1,0.4,4,1.1c1,0.7,1.5,1.6,1.5,2.7h-2.3c-0.2-1.3-1.3-1.9-3.3-1.9
			c-1,0-1.7,0.2-2.3,0.7c-0.5,0.4-0.8,0.9-0.8,1.4c0,0.5,0.2,0.9,0.6,1.3c0.4,0.4,1,0.7,1.9,0.9l2.9,1c1.2,0.4,2.2,0.9,2.8,1.5
			c0.7,0.6,1,1.4,1,2.4c0,1-0.5,2-1.6,2.8c-1.1,0.8-2.5,1.2-4.4,1.2s-3.4-0.4-4.4-1.3c-1.1-0.9-1.6-1.9-1.7-3.3h2.3
			c0,0.9,0.4,1.6,1.1,2c0.7,0.5,1.6,0.7,2.6,0.7s1.9-0.2,2.6-0.7s1-1,1-1.6c0-0.6-0.2-1.1-0.6-1.4c-0.4-0.3-1-0.6-1.9-0.8l-2.8-0.9
			c-2.5-0.7-3.8-2-3.8-3.9C1373.2,455.1,1373.7,454.2,1374.7,453.5z"/>
		<path d="M1397.8,466.7c-1.7,0.8-3.3,1-4.7,0.5c-1-0.3-1.7-1-2.2-2c-0.2-0.5-0.3-1.1-0.3-1.8v-8.8h-2.3v-1.8h2.3v-4h2.3v4h4.5v1.8
			h-4.5v8.8c0,1.5,0.7,2.2,2,2.2c0.7,0,1.6-0.2,2.5-0.5L1397.8,466.7z"/>
		<path d="M1411.9,464.3c-1,2.1-2.6,3.1-4.8,3.1c-1.6,0-2.9-0.5-3.9-1.4c-1-0.9-1.5-2.3-1.5-4.2v-9.1h2.4v8.9c0,2.4,1.1,3.6,3.4,3.6
			c1.3,0,2.4-0.5,3.2-1.5c0.8-1,1.2-2.3,1.3-3.8v-7.2h2.4v14.4h-2.4V464.3z"/>
		<path d="M1421.1,452.8l4.3,11.8l4.3-11.8h2.7l-5.7,14.3h-2.6l-5.7-14.3H1421.1z"/>
		<path d="M1436.6,452.8l3.5,11.4l3.4-10.7h2l3.4,10.9l3.5-11.5h2.3l-4.7,14.3h-2.3l-3.3-10l-3.2,10h-2.3l-4.8-14.3H1436.6z"/>
		<path d="M1470.5,467.1h-2.9l-4.1-5.4l-3.9,5.4h-2.9l5.4-7.2l-5.4-7.2h2.9l4.1,5.4l3.9-5.4h2.9l-5.5,7.2L1470.5,467.1z"/>
		<path d="M1472.1,471.3c1,0.8,2,1.1,3.1,1.1c0.8,0,1.5-0.4,2.1-1.2c0.4-0.6,0.8-1.5,1.1-2.6l0.4-1.5l-5.9-14.3h2.6l4.4,11.4
			l3.4-11.4h2.4l-5.4,17.2c-0.5,1.5-1.1,2.6-1.8,3.4c-0.8,0.8-1.7,1.2-2.8,1.2c-1.2,0-2.3-0.4-3.6-1V471.3z"/>
		<path d="M1488.6,465.2l8.4-10.5h-8.4v-1.9h11.1v1.9l-8.3,10.5h8.3v1.9h-11.1V465.2z"/>
	</g>
	<g>
		<path d="M1088.4,514.9c2.3,0,4.1,0.8,5.4,2.5s2,4.1,2,7.2c0,3.1-0.7,5.6-2,7.2c-1.3,1.7-3.1,2.5-5.4,2.5c-2.3,0-4.1-0.8-5.4-2.5
			c-1.3-1.7-2-4.1-2-7.3s0.7-5.6,2-7.3C1084.3,515.8,1086.1,514.9,1088.4,514.9z M1093.3,524.7c0-2.5-0.4-4.3-1.3-5.6
			c-0.8-1.3-2.1-2-3.7-2s-2.8,0.7-3.7,2c-0.8,1.3-1.3,3.2-1.3,5.6s0.4,4.3,1.3,5.6c0.8,1.3,2.1,2,3.7,2s2.8-0.7,3.7-2
			C1092.9,529,1093.3,527.1,1093.3,524.7z"/>
		<path d="M1099.3,516.7c1.3-0.2,2.5-0.7,3.5-1.5h1.9v18.9h-2.3V518c-1,0.6-2,1-3.1,1V516.7z"/>
		<path d="M1112.7,531.9h11v2.2h-13.3v-2.8c0-2.2,0.8-3.8,2.5-4.9c0.5-0.3,1.1-0.6,1.8-0.9l3.7-1.5c1.9-0.8,2.9-2,2.9-3.8
			c0-1-0.3-1.7-1-2.4c-0.7-0.6-1.6-0.9-2.8-0.9c-1.2,0-2.2,0.2-2.9,0.8s-1.2,1.2-1.3,2.2h-2.6c0.1-1.6,0.8-2.9,2-3.8
			c1.2-0.9,2.8-1.3,4.7-1.3s3.5,0.5,4.7,1.6s1.8,2.3,1.8,3.9c0,1.5-0.4,2.7-1.2,3.6c-0.8,0.9-1.9,1.6-3.3,2.2l-3.8,1.5
			c-1,0.4-1.7,0.9-2.1,1.4c-0.5,0.5-0.7,1.2-0.7,2V531.9z"/>
		<path d="M1141.5,520.1c0,2-1.1,3.4-3.3,4.2c1.2,0.3,2.2,0.9,2.9,1.7c0.7,0.8,1.1,1.8,1.1,3c0,1.7-0.6,3-1.9,4
			c-1.3,1-2.9,1.5-5,1.5c-2.1,0-3.8-0.5-5.3-1.6c-1.5-1.1-2.2-2.6-2.2-4.5h2.5c0,1.3,0.5,2.3,1.4,2.9c0.9,0.7,2.1,1,3.5,1
			c1.4,0,2.5-0.3,3.3-1c0.8-0.7,1.2-1.5,1.2-2.5c0-1-0.4-1.8-1.1-2.4c-0.7-0.6-1.9-0.9-3.6-0.9h-2.2v-1.9h1.5c1.4,0,2.6-0.3,3.4-0.9
			c0.8-0.6,1.3-1.3,1.3-2.3c0-1-0.3-1.7-1-2.4c-0.7-0.6-1.6-0.9-2.7-0.9s-2.1,0.2-2.8,0.6c-0.8,0.4-1.3,1.1-1.5,2.2h-2.5
			c0.2-1.7,0.9-2.9,2.1-3.7c1.2-0.8,2.7-1.2,4.5-1.2s3.4,0.5,4.6,1.5C1140.9,517.4,1141.5,518.6,1141.5,520.1z"/>
		<path d="M1157.6,515v12.5h3.3v2h-3.3v4.6h-2.3v-4.6h-9.8v-1.8l9.9-12.8H1157.6z M1148.3,527.7h7v-9L1148.3,527.7z"/>
		<path d="M1174.9,528c0-2.4-1.5-3.6-4.6-3.6h-5.1l0.8-9.2h10.5v2.2h-8.2l-0.5,5.4c1-0.2,2-0.3,3-0.3c2.1,0,3.7,0.5,4.9,1.4
			c1.2,0.9,1.8,2.3,1.8,4.1s-0.6,3.4-1.9,4.6c-1.2,1.2-2.8,1.8-4.8,1.8c-2,0-3.6-0.5-4.8-1.5c-1.2-1-1.9-2.4-1.9-4.1h2.4
			c0,1.6,0.8,2.7,2.5,3.2c0.5,0.1,1.1,0.2,1.7,0.2c1.3,0,2.3-0.4,3.1-1.2C1174.5,530.3,1174.9,529.2,1174.9,528z"/>
		<path d="M1192.4,520c-0.3-2-1.4-2.9-3.2-2.9s-3.2,0.7-4.2,2.2c-1,1.5-1.5,3.5-1.5,6.1c0,1.1,0,1.9,0.2,2.6c0.1-1.8,0.7-3.2,1.7-4
			c1-0.8,2.3-1.2,3.9-1.2c1.6,0,2.9,0.6,4.1,1.7c1.1,1.1,1.7,2.5,1.7,4.3c0,1.7-0.6,3.1-1.8,4.2c-1.2,1.1-2.7,1.6-4.6,1.6
			c-2.2,0-4-0.9-5.4-2.7c-1.4-1.8-2.1-4.2-2.1-7.1s0.7-5.3,2.1-7.1c1.4-1.8,3.3-2.7,5.7-2.7c1.7,0,3,0.5,4.1,1.4
			c1.1,0.9,1.7,2.2,1.8,3.7H1192.4z M1188.7,524.9c-1.1,0-2.1,0.4-2.8,1.1c-0.8,0.7-1.1,1.6-1.1,2.7c0,1.1,0.4,2,1.1,2.7
			c0.7,0.7,1.7,1,2.8,1c1.1,0,2.1-0.3,2.8-1c0.8-0.7,1.1-1.6,1.1-2.7c0-1.2-0.4-2.1-1.1-2.7C1190.8,525.2,1189.8,524.9,1188.7,524.9
			z"/>
		<path d="M1211,515.3v2.2l-8.6,16.7h-3.2l9.1-16.6h-10.1v-2.3H1211z"/>
		<path d="M1218.2,524.6c-2.5-1.1-3.8-2.7-3.8-4.6c0-1.5,0.6-2.7,1.9-3.6s2.9-1.4,4.9-1.4c2,0,3.7,0.5,5.1,1.5s2,2.2,2,3.8
			c0,1-0.3,2-1,2.8c-0.7,0.8-1.7,1.3-3,1.5l0.5,0.2c1.4,0.5,2.4,1.1,3.2,1.8s1.1,1.7,1.1,2.9c0,1.5-0.7,2.7-2,3.7
			c-1.3,0.9-3.2,1.4-5.5,1.4s-4.1-0.5-5.6-1.5c-1.4-1-2.1-2.3-2.1-3.8c0-1.2,0.4-2.2,1.2-3C1215.8,525.3,1216.9,524.8,1218.2,524.6z
			 M1220.4,525.5c-1.3,0.1-2.3,0.5-3,1.2c-0.8,0.6-1.1,1.5-1.1,2.4s0.5,1.7,1.4,2.3c1,0.6,2.2,0.9,3.8,0.9c1.5,0,2.8-0.3,3.7-0.8
			c0.9-0.5,1.4-1.2,1.4-1.9c0-0.7-0.2-1.3-0.7-1.8c-0.5-0.4-1.1-0.8-2-1.1L1220.4,525.5z M1216.9,520.2c0,0.5,0.2,1,0.7,1.4
			c0.4,0.4,1.1,0.7,1.9,1.1l2.2,0.8c1.2,0,2.2-0.4,3-0.9c0.8-0.6,1.2-1.4,1.2-2.3s-0.4-1.7-1.2-2.3s-1.9-0.9-3.2-0.9
			c-1.3,0-2.4,0.3-3.2,0.9C1217.3,518.5,1216.9,519.3,1216.9,520.2z"/>
		<path d="M1239.6,514.9c1,0,2,0.2,2.9,0.7c0.9,0.4,1.7,1.1,2.4,1.9c1.4,1.8,2.2,4,2.2,6.9c0,4.9-1.4,8-4.1,9.4
			c-0.9,0.5-2,0.7-3.1,0.7c-2.1,0-3.7-0.6-4.9-1.7s-1.8-2.5-1.8-4.2h2.5c0,1.1,0.4,2.1,1.1,2.7s1.5,1,2.6,1s1.9-0.2,2.5-0.6
			c1.8-1.1,2.7-3.7,2.7-7.7c0-0.8,0-1.6-0.1-2.2c-0.2,1.6-0.8,2.8-1.8,3.6c-1,0.8-2.2,1.2-3.8,1.2s-2.9-0.6-4.1-1.7
			c-1.1-1.1-1.7-2.5-1.7-4.2c0-1.7,0.6-3.1,1.8-4.2C1236.1,515.5,1237.7,514.9,1239.6,514.9z M1242.4,518.1c-0.8-0.7-1.7-1-2.8-1
			s-2.1,0.3-2.8,1s-1.1,1.6-1.1,2.7c0,1.2,0.4,2.1,1.1,2.7s1.7,1,2.8,1s2.1-0.4,2.8-1.1s1.1-1.6,1.1-2.7S1243.1,518.8,1242.4,518.1z
			"/>
	</g>
	<g>
		<path d="M1092.4,643.7h-8l-1.9,5.8h-2.5l7-21h2.9l7.1,21h-2.6L1092.4,643.7z M1085.1,641.5h6.6l-3.1-9.9h-0.4L1085.1,641.5z"/>
		<path d="M1117.3,633.3c0,0.5-0.1,1-0.2,1.5c-0.2,0.5-0.4,1-0.7,1.5c-0.3,0.5-0.7,0.8-1.2,1.2c-0.5,0.3-1.1,0.6-1.8,0.8v0.1
			c0.6,0.1,1.2,0.3,1.7,0.5c0.5,0.2,1,0.6,1.5,1s0.8,0.9,1,1.5c0.3,0.6,0.4,1.3,0.4,2.1c0,1.1-0.2,2-0.7,2.8c-0.4,0.8-1,1.4-1.8,1.9
			s-1.6,0.9-2.5,1.1c-0.9,0.2-1.9,0.4-2.9,0.4c-0.3,0-0.7,0-1.2,0s-0.9,0-1.4,0s-1-0.1-1.5-0.1c-0.5,0-0.9-0.1-1.3-0.2v-20.7
			c0.7-0.1,1.6-0.2,2.6-0.3c1-0.1,2-0.1,3.2-0.1c0.8,0,1.6,0.1,2.4,0.2c0.8,0.1,1.5,0.4,2.2,0.8s1.2,0.9,1.6,1.5
			S1117.3,632.2,1117.3,633.3z M1108.7,637.7c0.3,0,0.8,0,1.2,0c0.5,0,0.9,0,1.2-0.1c0.5-0.2,0.9-0.4,1.3-0.6
			c0.4-0.2,0.8-0.5,1.1-0.8c0.3-0.3,0.6-0.7,0.8-1.1c0.2-0.4,0.3-0.8,0.3-1.3c0-0.7-0.1-1.2-0.4-1.7c-0.2-0.4-0.6-0.8-1-1
			s-0.9-0.4-1.4-0.5c-0.5-0.1-1.1-0.2-1.7-0.2c-0.7,0-1.3,0-1.8,0c-0.6,0-1,0.1-1.2,0.1v7.1H1108.7z M1110.3,647.6
			c0.6,0,1.3-0.1,1.9-0.2c0.6-0.2,1.1-0.4,1.6-0.7c0.5-0.3,0.8-0.7,1.1-1.2c0.3-0.5,0.4-1,0.4-1.7c0-0.8-0.2-1.5-0.5-2
			s-0.8-0.9-1.3-1.2c-0.5-0.3-1.1-0.5-1.8-0.6c-0.7-0.1-1.3-0.2-2-0.2h-2.6v7.5c0.1,0,0.3,0.1,0.6,0.1c0.3,0,0.5,0,0.8,0.1
			c0.3,0,0.6,0,0.9,0C1109.8,647.6,1110.1,647.6,1110.3,647.6z"/>
		<path d="M1137.6,630.8c-0.3-0.1-0.7-0.2-1.1-0.3c-0.4-0.1-0.9-0.1-1.5-0.1c-0.8,0-1.6,0.1-2.4,0.5c-0.8,0.3-1.5,0.8-2.1,1.5
			s-1.1,1.6-1.5,2.7c-0.4,1.1-0.6,2.5-0.6,4c0,1.4,0.2,2.7,0.5,3.8s0.8,2,1.4,2.7c0.6,0.7,1.3,1.3,2.1,1.6c0.8,0.4,1.8,0.5,2.8,0.5
			c0.5,0,1,0,1.5-0.1c0.5-0.1,0.9-0.2,1.2-0.4v-3h2.2v4.1l0,0.1c-0.6,0.5-1.4,0.8-2.3,1.2c-0.9,0.3-2,0.5-3.4,0.5
			c-1.3,0-2.4-0.2-3.5-0.6c-1.1-0.4-2-1.1-2.8-2c-0.8-0.9-1.4-2-1.8-3.4c-0.4-1.4-0.6-3-0.6-4.9c0-2,0.2-3.6,0.7-5
			c0.5-1.4,1.1-2.5,2-3.4c0.8-0.9,1.8-1.5,2.9-1.9c1.1-0.4,2.3-0.6,3.5-0.6c0.7,0,1.3,0,1.8,0.1c0.5,0.1,0.9,0.1,1.3,0.2
			c0.4,0.1,0.7,0.2,1,0.3c0.3,0.1,0.6,0.3,0.9,0.5h0v4.7h-2.2V630.8z"/>
		<path d="M1148.4,628.5c0.8-0.1,1.6-0.2,2.4-0.2c0.8,0,1.5,0,2.1,0c1.8,0,3.3,0.3,4.6,0.8c1.2,0.5,2.2,1.2,3,2.2
			c0.7,0.9,1.3,2,1.6,3.3c0.3,1.3,0.5,2.7,0.5,4.3c0,1.4-0.2,2.8-0.4,4.1c-0.3,1.3-0.8,2.5-1.6,3.5c-0.7,1-1.7,1.8-3,2.4
			c-1.2,0.6-2.8,0.9-4.7,0.9c-0.3,0-0.6,0-1,0s-0.8,0-1.3-0.1c-0.4,0-0.9-0.1-1.3-0.1c-0.4,0-0.7,0-0.9-0.1V628.5z M1153.1,630.5
			c-0.3,0-0.6,0-1.1,0c-0.4,0-0.8,0.1-1.1,0.1v16.8c0.1,0,0.2,0,0.4,0c0.2,0,0.4,0,0.6,0c0.2,0,0.4,0,0.6,0c0.2,0,0.3,0,0.5,0
			c1.5,0,2.6-0.2,3.6-0.7c0.9-0.5,1.6-1.1,2.1-1.9c0.5-0.8,0.8-1.7,1-2.8c0.2-1,0.3-2.1,0.3-3.3c0-1-0.1-2-0.2-3
			c-0.2-1-0.5-1.9-1-2.7c-0.5-0.8-1.2-1.5-2.1-2C1155.7,630.7,1154.5,630.5,1153.1,630.5z"/>
		<path d="M1171.5,628.5h12.3v2.2h-9.8v6.9h9.1v2.2h-9.1v7.5h10v2.2h-12.5V628.5z"/>
		<path d="M1194,628.5h12v2.2h-9.5v7.2h8.9v2.2h-8.9v9.4h-2.5V628.5z"/>
		<path d="M1225.8,630.5c-0.7-0.1-1.5-0.2-2.5-0.2c-0.8,0-1.7,0.1-2.4,0.4c-0.8,0.3-1.5,0.8-2,1.5c-0.6,0.7-1.1,1.6-1.4,2.7
			c-0.4,1.1-0.5,2.5-0.5,4.1c0,3,0.5,5.1,1.6,6.5c1.1,1.4,2.7,2.1,4.7,2.1c1.3,0,2.4-0.2,3.3-0.8V641h-4.4v-2h6.5v9.2
			c-0.3,0.2-0.7,0.5-1.2,0.7s-0.9,0.4-1.4,0.5c-0.5,0.1-1,0.2-1.6,0.3s-1.1,0.1-1.6,0.1c-1.3,0-2.5-0.2-3.6-0.6
			c-1.1-0.4-2-1.1-2.7-2c-0.7-0.9-1.3-2-1.7-3.4c-0.4-1.4-0.6-3-0.6-4.8c0-1.9,0.2-3.6,0.8-5s1.2-2.5,2-3.4c0.8-0.9,1.8-1.5,2.8-1.9
			c1.1-0.4,2.2-0.6,3.3-0.6c1.2,0,2.2,0.1,3,0.2c0.8,0.1,1.4,0.3,2,0.5l0,0.1v5h-2.2V630.5z"/>
		<path d="M1248.6,639.8h-9.4v9.6h-2.5v-21h2.5v9.2h9.4v-9.2h2.5v21h-2.5V639.8z"/>
		<path d="M1258.8,628.5h14.4v2.2h-6v16.6h6v2.2h-14.4v-2.2h5.9v-16.6h-5.9V628.5z"/>
		<path d="M1282.2,628.5h11.9V642c0,2.5-0.6,4.4-1.8,5.8s-2.9,2-5.2,2c-0.6,0-1.2,0-1.7-0.1c-0.6-0.1-1.1-0.2-1.6-0.4
			c-0.5-0.2-0.9-0.4-1.2-0.6c-0.4-0.2-0.6-0.4-0.8-0.6l1.1-2c0.2,0.1,0.5,0.3,0.7,0.4c0.3,0.2,0.6,0.3,0.9,0.5
			c0.3,0.1,0.7,0.3,1.1,0.4c0.4,0.1,0.9,0.1,1.4,0.1c1.5,0,2.6-0.5,3.4-1.4c0.8-0.9,1.2-2.5,1.2-4.6v-10.9h-9.4V628.5z"/>
		<path d="M1308.8,639.8h-2.3v9.7h-2.5v-21h2.5v9.4h2.2l6.8-9.4h2.9l-7.4,10l8.3,11h-3.1L1308.8,639.8z"/>
		<path d="M1326.3,628.5h2.5v18.8h8.5V642h2.2v7.4h-13.2V628.5z"/>
		<path d="M1359.6,635.5l0.3-2.8h-0.1l-1.4,2.6l-3.1,5.1h-0.8l-3.2-5.2l-1.4-2.5h-0.1l0.4,2.8v14h-2.4v-21h2.3l5,8h0.1l4.8-8h2.2v21
			h-2.5V635.5z"/>
		<path d="M1373.9,636.3l-1.6-3h-0.1l0.3,3v13.1h-2.4v-21h1.6l8.4,13.1l1.6,2.9h0.2l-0.3-2.9v-13.1h2.4v21h-1.6L1373.9,636.3z"/>
		<path d="M1391.7,639c0-3.5,0.6-6.2,1.8-8c1.2-1.9,3.1-2.8,5.7-2.8c1.4,0,2.6,0.3,3.5,0.8c1,0.5,1.8,1.3,2.4,2.2
			c0.6,1,1,2.1,1.3,3.4c0.3,1.3,0.4,2.8,0.4,4.5c0,3.5-0.6,6.2-1.8,8s-3.1,2.8-5.7,2.8c-1.4,0-2.5-0.3-3.5-0.8s-1.7-1.3-2.3-2.2
			c-0.6-0.9-1-2.1-1.3-3.4S1391.7,640.6,1391.7,639z M1394.3,639c0,1.2,0.1,2.3,0.2,3.3c0.2,1,0.4,2,0.8,2.7
			c0.4,0.8,0.9,1.4,1.5,1.9s1.4,0.7,2.4,0.7c1.7,0,3-0.7,3.8-2.1c0.8-1.4,1.2-3.6,1.2-6.5c0-1.1-0.1-2.2-0.2-3.3
			c-0.2-1-0.4-2-0.8-2.8s-0.9-1.4-1.5-1.9c-0.6-0.5-1.4-0.7-2.4-0.7c-1.7,0-2.9,0.7-3.7,2.1C1394.7,633.9,1394.3,636,1394.3,639z"/>
		<path d="M1415.4,628.7c0.8-0.2,1.6-0.3,2.5-0.4c0.9-0.1,1.8-0.1,2.6-0.1c0.9,0,1.9,0.1,2.8,0.3c0.9,0.2,1.8,0.5,2.6,1
			c0.8,0.5,1.4,1.1,1.9,2s0.7,1.9,0.7,3.2c0,1.3-0.2,2.4-0.7,3.2s-1.1,1.6-1.8,2.1c-0.8,0.5-1.6,0.9-2.6,1.2c-1,0.2-2,0.4-3,0.4
			c-0.1,0-0.3,0-0.5,0c-0.2,0-0.5,0-0.7,0c-0.3,0-0.5,0-0.7,0c-0.2,0-0.4,0-0.5-0.1v8h-2.5V628.7z M1420.6,630.4c-0.5,0-1,0-1.5,0
			c-0.5,0-0.9,0.1-1.1,0.2v8.7c0.1,0,0.3,0.1,0.5,0.1c0.2,0,0.5,0,0.7,0c0.2,0,0.5,0,0.7,0c0.2,0,0.4,0,0.5,0c0.7,0,1.4-0.1,2-0.2
			c0.7-0.1,1.3-0.4,1.8-0.7c0.5-0.3,1-0.8,1.3-1.4c0.3-0.6,0.5-1.4,0.5-2.4c0-0.8-0.2-1.5-0.5-2.1s-0.7-1-1.2-1.3
			c-0.5-0.3-1.1-0.6-1.7-0.7C1421.9,630.5,1421.2,630.4,1420.6,630.4z"/>
		<path d="M1436.1,639c0-3.5,0.6-6.2,1.8-8c1.2-1.9,3.1-2.8,5.7-2.8c1.4,0,2.6,0.3,3.5,0.8c1,0.5,1.8,1.3,2.4,2.2
			c0.6,1,1,2.1,1.3,3.4c0.3,1.3,0.4,2.8,0.4,4.5c0,3.2-0.5,5.7-1.5,7.6c-1,1.8-2.6,2.9-4.8,3.2c0.2,0.7,0.5,1.2,1,1.6
			c0.5,0.3,1.1,0.5,1.9,0.5c0.9,0,1.6-0.2,2.3-0.7l0.7,1.8c-0.3,0.3-0.7,0.6-1.3,0.8c-0.6,0.2-1.2,0.3-1.8,0.3
			c-0.5,0-1.1-0.1-1.7-0.2c-0.6-0.2-1.1-0.4-1.6-0.7s-0.9-0.8-1.3-1.3c-0.4-0.5-0.6-1.2-0.7-2.1c-1.1-0.2-2.1-0.5-2.9-1.1
			c-0.8-0.6-1.4-1.3-1.9-2.2c-0.5-0.9-0.8-2-1.1-3.3C1436.2,641.9,1436.1,640.5,1436.1,639z M1438.7,639c0,1.2,0.1,2.3,0.2,3.3
			s0.4,2,0.8,2.8c0.4,0.8,0.9,1.4,1.5,1.9c0.6,0.5,1.4,0.7,2.4,0.7c1.7,0,3-0.7,3.8-2.1s1.2-3.6,1.2-6.6c0-1.1-0.1-2.2-0.2-3.3
			s-0.4-2-0.8-2.8s-0.9-1.4-1.5-1.9c-0.6-0.5-1.4-0.7-2.4-0.7c-1.7,0-2.9,0.7-3.7,2.1C1439.1,633.9,1438.7,636,1438.7,639z"/>
		<path d="M1459.8,628.7c0.8-0.1,1.6-0.2,2.6-0.3c1-0.1,1.9-0.1,2.7-0.1c0.9,0,1.8,0.1,2.6,0.3s1.6,0.5,2.2,1
			c0.6,0.5,1.1,1.1,1.5,1.8c0.4,0.7,0.6,1.6,0.6,2.7c0,0.8-0.1,1.5-0.4,2.2s-0.6,1.2-1,1.6c-0.4,0.4-0.8,0.8-1.2,1.1
			s-0.8,0.5-1.1,0.6l5.5,10h-2.9l-5-9.2h-3.7v9.2h-2.5V628.7z M1465.2,630.4c-0.3,0-0.5,0-0.8,0s-0.5,0-0.8,0c-0.3,0-0.5,0-0.7,0.1
			c-0.2,0-0.4,0.1-0.6,0.1v7.7h2.3c1.4,0,2.5-0.3,3.4-1s1.3-1.7,1.3-3.2c0-1.1-0.4-2-1.1-2.7
			C1467.6,630.7,1466.6,630.4,1465.2,630.4z"/>
		<path d="M1483.5,646.5c0.6,0.3,1.3,0.6,2,0.8s1.5,0.3,2.3,0.3c0.7,0,1.3-0.1,1.9-0.2c0.6-0.1,1.1-0.3,1.5-0.6
			c0.4-0.3,0.8-0.7,1-1.1c0.2-0.4,0.4-1,0.4-1.6c0-0.8-0.3-1.5-0.8-2c-0.6-0.5-1.2-1-2.1-1.4s-1.7-0.8-2.7-1.2s-1.8-0.8-2.7-1.4
			c-0.8-0.5-1.5-1.2-2.1-1.9c-0.6-0.8-0.8-1.7-0.8-2.9c0-0.8,0.2-1.6,0.5-2.2c0.3-0.7,0.8-1.2,1.4-1.7c0.6-0.5,1.3-0.8,2.2-1.1
			c0.8-0.2,1.8-0.4,2.8-0.4c1.2,0,2.3,0.1,3.3,0.3c1,0.2,1.8,0.4,2.3,0.7l0.1,0v0.1h0l0,0.1v4.8h-2.2v-3.2c-0.5-0.1-1-0.2-1.6-0.3
			c-0.6-0.1-1.2-0.1-1.9-0.1c-0.7,0-1.3,0.1-1.8,0.2c-0.5,0.2-1,0.4-1.3,0.6c-0.4,0.3-0.7,0.6-0.9,0.9c-0.2,0.4-0.3,0.7-0.3,1.1
			c0,0.8,0.3,1.4,0.8,2c0.5,0.5,1.2,1,2.1,1.4c0.8,0.4,1.7,0.8,2.7,1.2s1.8,0.9,2.7,1.4c0.8,0.5,1.5,1.2,2.1,1.9s0.8,1.7,0.8,2.8
			c0,0.9-0.2,1.7-0.5,2.4c-0.3,0.7-0.8,1.3-1.4,1.9c-0.6,0.5-1.4,0.9-2.2,1.2c-0.9,0.3-1.9,0.4-3,0.4c-0.8,0-1.5-0.1-2.2-0.2
			c-0.7-0.1-1.3-0.3-1.9-0.5c-0.6-0.2-1.1-0.4-1.5-0.6c-0.5-0.2-0.8-0.4-1.1-0.5l0-0.1v-4.9h2.2V646.5z"/>
		<path d="M1502.4,628.5h15.6v5.5h-2.2v-3.3h-4.3v16.6h3.3v2.2h-9.1v-2.2h3.3v-16.6h-4.3v3.3h-2.2V628.5z"/>
		<path d="M1537.2,628.5h2.4v14c0,1.3-0.2,2.4-0.5,3.3s-0.8,1.7-1.4,2.3c-0.6,0.6-1.3,1-2.2,1.3c-0.9,0.3-1.8,0.4-2.8,0.4
			c-2.5,0-4.3-0.6-5.6-1.7c-1.2-1.1-1.9-2.8-1.9-5.1v-14.5h2.5v13.3c0,1.1,0.1,2,0.3,2.7c0.2,0.7,0.5,1.3,0.9,1.8
			c0.4,0.5,0.9,0.8,1.6,1c0.6,0.2,1.4,0.3,2.2,0.3c1.6,0,2.8-0.4,3.5-1.3c0.7-0.9,1-2.4,1-4.4V628.5z"/>
		<path d="M1554.7,646.4h0.3l5.7-17.9h2.5l-7,21h-2.9l-7.2-21h2.7L1554.7,646.4z"/>
		<path d="M1573,643.4l0.1,1.9h0.2l0.4-2.1l2.2-8.2h2l2.1,8.1l0.5,2.2h0.1l0.2-2l2.2-14.9h2.2l-3.2,21h-2.5l-2.4-8.5l-0.3-2h-0.1
			l-0.3,2.1l-2.4,8.5h-2.5l-3.3-21h2.4L1573,643.4z"/>
		<path d="M1597.6,638.8l-6.3-10.3h3l4.2,7.1l0.8,1.4l0.7-1.4l4.5-7.1h2.8l-6.6,10.1l6.9,10.9h-2.9l-4.7-7.5l-0.8-1.5l-0.8,1.5
			l-4.8,7.5h-2.8L1597.6,638.8z"/>
		<path d="M1620,641.4l-7.5-13h2.9l6,10.4h0l5.8-10.4h2.7l-7.5,12.9v8.1h-2.5V641.4z"/>
		<path d="M1636.1,647.2l11.8-16.5h-11.8v-2.2h14.7v2.2l-11.9,16.5h11.9v2.2h-14.7V647.2z"/>
	</g>
	<g>
		<path d="M1082.7,692.3c0.9-0.5,1.8-0.9,2.9-1.1c1.1-0.2,2.1-0.3,3.2-0.3c1,0,1.9,0.2,2.5,0.5c0.6,0.3,1.2,0.7,1.5,1.2
			c0.4,0.5,0.6,1.1,0.8,1.7c0.1,0.7,0.2,1.3,0.2,2c0,0.8,0,1.6-0.1,2.4c0,0.9-0.1,1.7-0.1,2.6c0,1,0.1,1.9,0.2,2.8h2v2h-4l-0.3-2.2
			h-0.2c-0.1,0.2-0.3,0.4-0.5,0.7c-0.2,0.3-0.6,0.6-0.9,0.8c-0.4,0.3-0.9,0.5-1.4,0.7c-0.6,0.2-1.2,0.3-2,0.3
			c-1.5,0-2.7-0.4-3.5-1.1s-1.3-1.8-1.3-3.1c0-1,0.2-1.9,0.7-2.5s1.1-1.2,1.9-1.6c0.8-0.4,1.9-0.6,3.1-0.6c1.2-0.1,2.5,0,4,0.2
			c0.1-0.9,0.1-1.7,0-2.3c-0.1-0.6-0.2-1.1-0.5-1.5c-0.3-0.4-0.6-0.6-1.1-0.8c-0.5-0.2-1-0.2-1.7-0.2c-0.9,0-1.8,0.1-2.6,0.4
			c-0.8,0.3-1.6,0.5-2.2,0.8L1082.7,692.3z M1087.1,704.4c0.6,0,1.1-0.1,1.6-0.3c0.5-0.2,0.9-0.4,1.3-0.7s0.7-0.6,0.9-0.9
			c0.2-0.3,0.4-0.6,0.5-0.9v-2.1c-1-0.2-2-0.3-2.9-0.3s-1.6,0.1-2.3,0.3c-0.6,0.2-1.1,0.5-1.5,0.9c-0.4,0.4-0.5,0.9-0.5,1.6
			c0,0.7,0.2,1.2,0.7,1.7C1085.3,704.2,1086.1,704.4,1087.1,704.4z"/>
		<path d="M1098.1,685.2h4.8v7.7h0.1c0.5-0.7,1.2-1.2,2-1.5s1.7-0.5,2.7-0.5c4.4,0,6.6,2.5,6.6,7.6c0,2.6-0.7,4.6-2.1,5.9
			c-1.4,1.4-3.4,2.1-6.1,2.1c-1.2,0-2.4-0.1-3.4-0.4c-1-0.2-1.7-0.5-2.2-0.8v-18h-2.5V685.2z M1107.4,692.8c-1.2,0-2.2,0.3-2.9,1
			c-0.7,0.7-1.3,1.6-1.6,2.9v6.9c0.5,0.2,1,0.4,1.6,0.6c0.6,0.1,1.3,0.2,2,0.2c0.8,0,1.5-0.1,2.2-0.3c0.6-0.2,1.2-0.6,1.7-1.1
			c0.5-0.5,0.8-1.1,1.1-1.9c0.2-0.8,0.4-1.7,0.4-2.7c0-0.8-0.1-1.5-0.2-2.2c-0.2-0.7-0.4-1.3-0.8-1.8c-0.3-0.5-0.8-0.9-1.4-1.2
			S1108.2,692.8,1107.4,692.8z"/>
		<path d="M1129.8,693.5c-0.5-0.2-1-0.3-1.5-0.4c-0.5-0.1-1.1-0.2-1.6-0.2c-2,0-3.4,0.5-4.4,1.4c-1,0.9-1.4,2.4-1.4,4.4
			c0,0.9,0.1,1.7,0.4,2.4c0.3,0.7,0.7,1.3,1.2,1.8c0.5,0.5,1.1,0.9,1.9,1.1c0.7,0.3,1.5,0.4,2.4,0.4c0.9,0,1.9-0.2,2.7-0.5
			c0.9-0.3,1.6-0.8,2.2-1.3l1.1,1.7c-0.3,0.2-0.6,0.5-1.1,0.8c-0.4,0.3-0.9,0.5-1.5,0.7c-0.5,0.2-1.2,0.4-1.8,0.6s-1.4,0.2-2.2,0.2
			c-1.3,0-2.4-0.2-3.4-0.6s-1.8-0.9-2.5-1.6c-0.7-0.7-1.2-1.5-1.5-2.5c-0.3-1-0.5-2-0.5-3.2c0-1.3,0.2-2.4,0.5-3.4
			c0.3-1,0.9-1.8,1.5-2.5s1.5-1.2,2.4-1.5c0.9-0.3,2-0.5,3.1-0.5c1.5,0,2.7,0.1,3.6,0.4c0.9,0.3,1.7,0.6,2.4,0.9l0,0.1v4.2h-2.2
			V693.5z"/>
		<path d="M1145.7,685.2h4.9V701c0,0.2,0,0.4,0,0.7c0,0.3,0,0.6,0.1,0.9c0,0.3,0.1,0.6,0.1,0.9s0.1,0.5,0.1,0.8h2v2h-4l-0.3-2.3
			h-0.1c-0.4,0.8-1.1,1.4-2,1.9c-0.9,0.5-1.9,0.8-3,0.8c-2.3,0-3.9-0.6-5-1.9c-1.1-1.3-1.6-3.2-1.6-5.9c0-1.3,0.2-2.4,0.5-3.3
			c0.4-1,0.9-1.8,1.5-2.4c0.7-0.6,1.5-1.1,2.4-1.5c0.9-0.3,2-0.5,3.1-0.5c0.4,0,0.8,0,1.1,0s0.6,0,0.9,0.1c0.3,0,0.5,0.1,0.8,0.2
			c0.2,0.1,0.5,0.1,0.8,0.2v-4.3h-2.5V685.2z M1143.9,704.5c1.2,0,2.2-0.3,2.9-0.9c0.7-0.6,1.2-1.6,1.4-2.8v-7
			c-0.4-0.3-0.9-0.5-1.5-0.7c-0.5-0.1-1.3-0.2-2.2-0.2c-1.6,0-2.9,0.5-3.8,1.4c-0.9,0.9-1.4,2.4-1.4,4.4c0,0.8,0.1,1.6,0.2,2.3
			c0.1,0.7,0.4,1.3,0.7,1.8c0.3,0.5,0.8,0.9,1.4,1.2C1142.4,704.4,1143.1,704.5,1143.9,704.5z"/>
		<path d="M1169.7,704.3c-0.4,0.3-0.8,0.6-1.3,0.9s-1,0.5-1.6,0.7c-0.6,0.2-1.2,0.4-1.8,0.5c-0.6,0.1-1.3,0.2-1.9,0.2
			c-1.2,0-2.3-0.2-3.2-0.6s-1.7-0.9-2.3-1.6c-0.6-0.7-1.1-1.5-1.4-2.5c-0.3-1-0.5-2-0.5-3.2c0-1.3,0.2-2.4,0.5-3.4
			c0.3-1,0.9-1.8,1.5-2.5s1.5-1.2,2.4-1.5c0.9-0.3,2-0.5,3.2-0.5c0.8,0,1.7,0.1,2.5,0.3c0.8,0.2,1.5,0.6,2.2,1.2
			c0.6,0.6,1.1,1.5,1.5,2.5c0.3,1.1,0.5,2.5,0.4,4.2h-11.6c0,1.8,0.5,3.1,1.5,4s2.3,1.3,3.9,1.3c0.5,0,1.1-0.1,1.6-0.2
			c0.5-0.1,1-0.3,1.5-0.5c0.5-0.2,0.9-0.4,1.3-0.6s0.7-0.4,0.9-0.6L1169.7,704.3z M1163.4,692.8c-0.7,0-1.3,0.1-1.9,0.2
			s-1.1,0.4-1.6,0.7c-0.4,0.3-0.8,0.8-1.1,1.3c-0.3,0.5-0.5,1.2-0.6,2h9.3c-0.1-1.3-0.5-2.3-1.3-3.1
			C1165.6,693.1,1164.6,692.8,1163.4,692.8z"/>
		<path d="M1175.1,706.2v-2h3.6v-11h-3.6v-2h3.6v-0.8c0-1.9,0.5-3.2,1.5-4.1c1-0.8,2.4-1.3,4.2-1.3c0.7,0,1.2,0,1.8,0.1
			c0.5,0.1,1.1,0.2,1.7,0.5l-0.5,2c-0.5-0.2-1-0.4-1.5-0.4c-0.5-0.1-0.9-0.1-1.3-0.1c-1.3,0-2.2,0.3-2.7,1c-0.5,0.7-0.7,1.7-0.7,3.2
			h6.2v2h-6.2v11h6.2v2H1175.1z"/>
		<path d="M1206.8,706.9c0,0.9-0.2,1.8-0.5,2.5c-0.4,0.7-0.9,1.3-1.5,1.8s-1.4,0.8-2.2,1c-0.8,0.2-1.8,0.3-2.7,0.3
			c-1.2,0-2.2-0.1-3.1-0.4s-1.6-0.6-2.3-0.9l1.1-2.1c0.2,0.2,0.4,0.3,0.7,0.5c0.3,0.2,0.6,0.3,1,0.4c0.4,0.1,0.8,0.2,1.2,0.3
			s0.9,0.1,1.3,0.1c0.9,0,1.6-0.1,2.2-0.2s1.1-0.4,1.4-0.8c0.4-0.3,0.6-0.8,0.8-1.3s0.2-1.2,0.2-2v-1.7h-0.1c-0.5,0.7-1,1.2-1.8,1.5
			c-0.7,0.4-1.6,0.5-2.8,0.5c-2.3,0-3.9-0.6-5-1.9c-1.1-1.3-1.6-3.2-1.6-5.9c0-2.6,0.7-4.5,2-5.8c1.4-1.3,3.4-2,6.1-2
			c1.2,0,2.3,0.1,3.2,0.3s1.7,0.4,2.4,0.6V706.9z M1200.1,704.5c1.2,0,2.2-0.3,2.9-0.9c0.7-0.6,1.2-1.6,1.5-2.9v-7.1
			c-0.9-0.4-2.1-0.6-3.7-0.6c-1.6,0-2.8,0.5-3.8,1.4c-0.9,0.9-1.4,2.4-1.4,4.3c0,0.9,0.1,1.6,0.2,2.4c0.2,0.7,0.4,1.3,0.8,1.8
			c0.3,0.5,0.8,0.9,1.4,1.2S1199.2,704.5,1200.1,704.5z"/>
		<path d="M1209.8,685.2h4.7v7.9h0.2c0.6-0.7,1.3-1.2,2.2-1.6c0.8-0.4,1.8-0.6,3.1-0.6c1,0,1.8,0.1,2.5,0.3c0.7,0.2,1.3,0.6,1.7,1.1
			s0.8,1.2,1,2.1c0.2,0.9,0.3,2,0.3,3.3v8.6h-2.4V698c0-0.9,0-1.6-0.1-2.2c-0.1-0.6-0.3-1.2-0.6-1.6s-0.7-0.8-1.2-1
			c-0.5-0.2-1.1-0.3-1.9-0.3c-0.5,0-1.1,0.1-1.6,0.3c-0.5,0.2-1,0.5-1.4,0.8s-0.8,0.7-1.1,1.2c-0.3,0.5-0.5,1-0.6,1.5v9.5h-2.3v-19
			h-2.4V685.2z"/>
		<path d="M1231.4,706.2v-2h5.2v-11h-5.2v-2h7.6v13h5.1v2H1231.4z M1235.8,686.9c0-0.5,0.2-1,0.5-1.4c0.4-0.4,0.8-0.6,1.4-0.6
			c0.6,0,1.1,0.2,1.5,0.6c0.4,0.4,0.6,0.9,0.6,1.4c0,0.5-0.2,1-0.6,1.3c-0.4,0.4-0.9,0.5-1.5,0.5c-0.6,0-1-0.2-1.4-0.5
			C1236,687.9,1235.8,687.4,1235.8,686.9z"/>
		<path d="M1257,693.2h-7.3v-2h9.7v15.4c0,2-0.5,3.5-1.5,4.5s-2.5,1.5-4.3,1.5c-0.5,0-1.1-0.1-1.6-0.2s-1-0.3-1.4-0.5
			c-0.4-0.2-0.8-0.4-1.2-0.6s-0.6-0.4-0.7-0.5l1-2c0.5,0.4,1.2,0.8,1.9,1c0.7,0.3,1.4,0.5,2.2,0.5c1.2,0,2.1-0.4,2.6-1.1
			c0.5-0.8,0.8-1.8,0.8-3.1V693.2z M1255.7,686.9c0-0.5,0.2-1,0.5-1.4c0.4-0.4,0.8-0.6,1.4-0.6c0.6,0,1.1,0.2,1.5,0.6
			c0.4,0.4,0.6,0.9,0.6,1.4c0,0.5-0.2,1-0.6,1.3c-0.4,0.4-0.9,0.5-1.5,0.5c-0.6,0-1-0.2-1.4-0.5
			C1255.8,687.9,1255.7,687.4,1255.7,686.9z"/>
		<path d="M1266.2,685.2h4.9v12.4h1.7l5.9-6.4h2.8l-6.6,7.1l5.5,5.9h2v2h-3.1l-6.4-6.8h-1.7v6.8h-2.3v-19h-2.5V685.2z"/>
		<path d="M1286.1,685.2h5v16c0,1.2,0.2,2.1,0.6,2.6s1,0.8,1.8,0.8c0.6,0,1.1-0.1,1.7-0.3s1.1-0.5,1.6-0.9l1.1,1.6
			c-0.3,0.3-0.7,0.5-1.1,0.8c-0.4,0.2-0.8,0.4-1.2,0.6s-0.8,0.3-1.2,0.3c-0.4,0.1-0.8,0.1-1.1,0.1c-0.7,0-1.4-0.1-2-0.3
			c-0.6-0.2-1.1-0.5-1.5-0.9c-0.4-0.4-0.7-1-0.9-1.7c-0.2-0.7-0.3-1.5-0.3-2.6v-14h-2.6V685.2z"/>
		<path d="M1310.5,706.2v-10c0-0.4,0-0.8,0-1.2c0-0.4-0.1-0.7-0.2-1c-0.1-0.3-0.3-0.6-0.5-0.7s-0.5-0.3-0.8-0.3
			c-0.7,0-1.3,0.3-1.7,0.8c-0.5,0.6-0.8,1.3-1.1,2.1v10.3h-2.3v-15h1.6l0.5,1.8h0.1c0.2-0.3,0.4-0.6,0.6-0.9
			c0.2-0.3,0.4-0.5,0.7-0.7c0.2-0.2,0.5-0.4,0.9-0.5c0.3-0.1,0.8-0.2,1.3-0.2c0.3,0,0.6,0,0.9,0.1c0.3,0.1,0.6,0.2,0.9,0.4
			c0.3,0.2,0.5,0.4,0.7,0.8s0.3,0.7,0.4,1.2c0.5-0.8,1-1.4,1.5-1.8c0.6-0.4,1.4-0.7,2.4-0.7c0.7,0,1.2,0.1,1.6,0.3
			c0.4,0.2,0.7,0.5,1,0.9c0.2,0.4,0.4,0.9,0.5,1.5s0.1,1.2,0.1,1.9v10.7h-2.3V696c0-0.4,0-0.8-0.1-1.2s-0.1-0.7-0.2-1
			c-0.1-0.3-0.3-0.5-0.5-0.7c-0.2-0.2-0.4-0.2-0.8-0.2c-0.7,0-1.3,0.3-1.8,0.8c-0.5,0.6-0.8,1.4-1.1,2.4v10H1310.5z"/>
		<path d="M1324,696.4c0-0.2,0-0.4,0-0.7c0-0.3,0-0.6,0-0.9c0-0.3,0-0.6-0.1-0.9c0-0.3-0.1-0.6-0.1-0.8h-2v-2h4l0.3,2.4h0.2
			c0.2-0.3,0.5-0.7,0.8-1s0.7-0.6,1.2-0.9c0.4-0.3,0.9-0.5,1.5-0.6s1.1-0.2,1.7-0.2c0.9,0,1.7,0.1,2.4,0.3c0.7,0.2,1.3,0.6,1.8,1.1
			c0.5,0.5,0.8,1.2,1.1,2.1c0.2,0.9,0.4,2,0.4,3.3v8.6h-2.4V698c0-1.7-0.3-2.9-0.8-3.7s-1.5-1.3-2.9-1.3c-0.5,0-1,0.1-1.5,0.3
			c-0.5,0.2-0.9,0.5-1.3,0.8c-0.4,0.3-0.7,0.7-1,1.2c-0.3,0.4-0.5,0.9-0.7,1.4v9.4h-2.3V696.4z"/>
		<path d="M1341.6,698.7c0-2.4,0.6-4.3,1.9-5.7c1.3-1.4,3.1-2.1,5.4-2.1c1.3,0,2.3,0.2,3.3,0.6s1.7,1,2.3,1.7c0.6,0.7,1,1.5,1.3,2.5
			c0.3,1,0.4,2,0.4,3.1c0,1.2-0.2,2.3-0.5,3.3c-0.3,1-0.8,1.8-1.4,2.5c-0.6,0.7-1.4,1.2-2.3,1.6c-0.9,0.4-1.9,0.6-3.1,0.6
			c-1.2,0-2.3-0.2-3.2-0.6c-0.9-0.4-1.7-1-2.3-1.7c-0.6-0.7-1-1.5-1.3-2.5S1341.6,699.8,1341.6,698.7z M1344,698.7
			c0,0.7,0.1,1.4,0.3,2.1c0.2,0.7,0.4,1.3,0.8,1.9c0.4,0.6,0.9,1,1.5,1.3s1.4,0.5,2.2,0.5c1.6,0,2.8-0.5,3.6-1.5
			c0.8-1,1.2-2.4,1.2-4.4c0-0.7-0.1-1.4-0.3-2.1c-0.2-0.7-0.4-1.3-0.8-1.9c-0.4-0.6-0.9-1-1.5-1.3s-1.4-0.5-2.2-0.5
			c-1.6,0-2.8,0.5-3.6,1.5C1344.4,695.3,1344,696.7,1344,698.7z"/>
		<path d="M1361.3,696.4c0-0.2,0-0.4,0-0.7c0-0.3,0-0.6,0-0.9c0-0.3,0-0.6-0.1-0.9s-0.1-0.6-0.1-0.8h-2v-2h4l0.3,2.1h0.2
			c0.5-0.7,1.2-1.3,2.1-1.8s1.8-0.7,3-0.7c2.1,0,3.8,0.6,4.8,1.8c1.1,1.2,1.6,3.1,1.6,5.8c0,1.3-0.2,2.4-0.6,3.4
			c-0.4,1-0.9,1.9-1.6,2.6c-0.7,0.7-1.5,1.2-2.5,1.6s-2,0.6-3.2,0.6c-0.4,0-0.8,0-1.1,0c-0.3,0-0.6-0.1-0.9-0.1
			c-0.3,0-0.5-0.1-0.8-0.2c-0.3-0.1-0.5-0.2-0.8-0.3v6.3h-2.3V696.4z M1368.2,693c-0.6,0-1.2,0.1-1.7,0.3c-0.5,0.2-1,0.5-1.4,0.9
			s-0.7,0.8-1,1.2c-0.3,0.4-0.4,0.9-0.5,1.3v6.8c0.4,0.3,0.9,0.5,1.5,0.7s1.3,0.3,2.2,0.3c1.6,0,2.9-0.5,3.8-1.6
			c1-1,1.4-2.6,1.4-4.6c0-1.7-0.3-3-1-3.9C1370.9,693.5,1369.8,693,1368.2,693z"/>
		<path d="M1392.5,712.2h-2.4v-7.7h-0.1c-0.5,0.7-1,1.2-1.8,1.5c-0.7,0.3-1.6,0.5-2.8,0.5c-2.3,0-3.9-0.6-5-1.9
			c-1.1-1.3-1.6-3.2-1.6-5.9c0-2.6,0.7-4.5,2-5.8c1.4-1.3,3.4-2,6.1-2c1.2,0,2.3,0.1,3.3,0.3c1,0.2,1.8,0.4,2.2,0.6V712.2z
			 M1385.8,704.5c2.4,0,3.8-1.2,4.3-3.8v-7.2c-0.4-0.2-1-0.4-1.6-0.5c-0.6-0.1-1.3-0.1-2.1-0.1c-1.6,0-2.9,0.5-3.8,1.4
			c-0.9,0.9-1.4,2.4-1.4,4.4c0,0.9,0.1,1.6,0.2,2.4c0.2,0.7,0.4,1.3,0.8,1.8c0.4,0.5,0.8,0.9,1.4,1.2
			C1384.3,704.4,1385,704.5,1385.8,704.5z"/>
		<path d="M1397.6,706.2v-2h4v-11h-4v-2h5.6l0.5,2h0.1c0.7-0.6,1.4-1.2,2.3-1.6c0.8-0.4,1.8-0.7,3-0.7c0.7,0,1.2,0.1,1.6,0.4
			s0.7,0.6,1,1.1c0.2,0.5,0.4,1.1,0.5,1.8s0.1,1.5,0.1,2.4l-2.1,0c0-1.3-0.1-2.2-0.4-2.8c-0.2-0.6-0.7-0.9-1.4-0.9
			c-0.6,0-1.2,0.1-1.7,0.3s-0.9,0.4-1.3,0.7c-0.4,0.3-0.7,0.5-0.9,0.8c-0.3,0.3-0.5,0.5-0.6,0.7v8.8h5.8v2H1397.6z"/>
		<path d="M1427.4,702.1c0-0.6-0.2-1.1-0.7-1.5c-0.5-0.3-1.1-0.6-1.9-0.8c-0.7-0.2-1.5-0.4-2.4-0.6c-0.9-0.2-1.7-0.4-2.4-0.7
			c-0.7-0.3-1.4-0.7-1.9-1.2c-0.5-0.5-0.7-1.2-0.7-2.1c0-0.8,0.2-1.4,0.5-2s0.8-1,1.3-1.3c0.5-0.3,1.2-0.6,1.9-0.8
			c0.7-0.2,1.5-0.3,2.2-0.3c1.4,0,2.6,0.2,3.6,0.5s1.8,0.7,2.4,1.1l-1,1.9c-0.7-0.4-1.4-0.7-2.1-1c-0.8-0.3-1.7-0.5-2.9-0.5
			c-0.4,0-0.9,0-1.3,0.1s-0.8,0.2-1.2,0.4c-0.3,0.2-0.6,0.4-0.8,0.7c-0.2,0.3-0.3,0.6-0.3,1.1c0,0.5,0.2,0.9,0.7,1.2
			c0.5,0.3,1.1,0.5,1.9,0.7c0.7,0.2,1.5,0.4,2.4,0.5s1.7,0.4,2.4,0.7c0.7,0.3,1.4,0.8,1.9,1.3c0.5,0.5,0.7,1.3,0.7,2.2
			c0,1.4-0.5,2.5-1.6,3.4s-2.7,1.3-4.9,1.3c-0.7,0-1.3-0.1-2-0.2c-0.6-0.1-1.2-0.3-1.8-0.5c-0.6-0.2-1.1-0.4-1.5-0.7
			c-0.5-0.2-0.8-0.5-1.1-0.8l1.2-2c0.2,0.2,0.6,0.5,1,0.7s0.8,0.5,1.3,0.7c0.5,0.2,1,0.4,1.5,0.5c0.5,0.1,1.1,0.2,1.7,0.2
			c0.5,0,1,0,1.5-0.1c0.5-0.1,0.9-0.2,1.2-0.4c0.4-0.2,0.6-0.4,0.9-0.8C1427.2,702.9,1427.4,702.5,1427.4,702.1z"/>
		<path d="M1433.8,691.2h3.6v-3l2.4-0.7v3.6h8v2h-8v7.1c0,1.5,0.4,2.5,1.1,3.2c0.7,0.7,1.7,1,3,1c0.9,0,1.7-0.2,2.3-0.5
			c0.7-0.3,1.3-0.7,1.8-1.1l0.8,1.8c-0.7,0.6-1.5,1-2.5,1.4c-1,0.3-2,0.5-3,0.5c-0.8,0-1.6-0.1-2.3-0.3s-1.3-0.6-1.9-1.1
			c-0.5-0.5-1-1.1-1.3-1.8c-0.3-0.8-0.5-1.6-0.5-2.7v-7.4h-3.6V691.2z"/>
		<path d="M1462.3,691.2h4.3v10.2c0,1,0.1,1.9,0.2,2.8h2v2h-4l-0.1-2.5h-0.1c-0.5,0.9-1.2,1.6-2.1,2.1s-1.9,0.8-3.1,0.8
			c-0.9,0-1.7-0.1-2.3-0.3c-0.6-0.2-1.2-0.6-1.6-1.1c-0.4-0.5-0.7-1.2-0.9-2.1c-0.2-0.9-0.3-2-0.3-3.3v-6.6h-2v-2h4.4v8.1
			c0,0.8,0,1.6,0.1,2.2c0.1,0.7,0.2,1.2,0.4,1.6c0.2,0.5,0.5,0.8,1,1c0.4,0.2,1,0.3,1.7,0.3c1,0,1.9-0.3,2.7-1
			c0.8-0.7,1.3-1.5,1.7-2.6v-7.8h-1.9V691.2z"/>
		<path d="M1479.1,703.2h0.3l4.7-12.1h2.6l-6.3,15h-2.6l-6.5-15h2.8L1479.1,703.2z"/>
		<path d="M1498.8,694.5l3,8.3h0.2l2.1-11.6h2.2l-2.9,15h-2.7l-2.9-8.3h-0.1l-3,8.3h-2.7l-3.2-15h2.3l2.4,11.7h0.2l2.9-8.4H1498.8z"
			/>
		<path d="M1514.8,698.5l-5.8-7.3h3l4.3,5.6l4.4-5.6h2.7l-5.8,7.2l6.2,7.8h-2.9l-4.8-6.2l-4.9,6.2h-2.7L1514.8,698.5z"/>
		<path d="M1535.2,703.8h1.1l3.7-12.7h2.4l-4.2,13.5c-0.2,0.7-0.4,1.5-0.7,2.4c-0.2,0.9-0.6,1.7-1,2.5c-0.4,0.8-1,1.4-1.7,2
			s-1.7,0.8-2.8,0.8c-0.3,0-0.5,0-0.8-0.1c-0.3-0.1-0.6-0.1-0.9-0.2s-0.5-0.2-0.8-0.3c-0.2-0.1-0.4-0.2-0.5-0.4l0.8-2.2
			c0.1,0.1,0.3,0.2,0.5,0.3c0.2,0.1,0.4,0.2,0.7,0.3s0.5,0.1,0.7,0.2c0.2,0,0.4,0.1,0.6,0.1c1.5,0,2.5-1.3,3.1-3.8h-2l-6.3-15h2.7
			L1535.2,703.8z"/>
		<path d="M1547,704.1l10.2-11H1547v-2h13v2l-10.3,11h10.3v2h-13V704.1z"/>
	</g>
	<g>
		<path d="M1081.1,762.7c0-1.7,0.1-3.2,0.5-4.6s0.8-2.5,1.4-3.4c0.6-0.9,1.4-1.6,2.3-2.1s2-0.7,3.3-0.7c1.3,0,2.5,0.2,3.4,0.7
			c0.9,0.5,1.7,1.2,2.3,2.1c0.6,0.9,1,2.1,1.3,3.4c0.3,1.3,0.4,2.9,0.4,4.6c0,1.7-0.2,3.2-0.5,4.6c-0.3,1.3-0.8,2.5-1.4,3.4
			c-0.6,0.9-1.4,1.6-2.3,2.1c-0.9,0.5-2,0.7-3.3,0.7c-1.3,0-2.5-0.3-3.4-0.8c-0.9-0.5-1.7-1.3-2.3-2.2c-0.6-1-1-2.1-1.3-3.4
			C1081.2,765.7,1081.1,764.3,1081.1,762.7z M1083.6,762.7c0,0.5,0,1,0,1.4c0,0.5,0.1,0.9,0.1,1.4l8.9-8.1c-0.3-1.1-0.8-1.9-1.5-2.6
			c-0.7-0.6-1.6-1-2.7-1c-1.8,0-3,0.7-3.8,2.2C1084,757.5,1083.6,759.7,1083.6,762.7z M1093.3,762.7c0-1.1-0.1-2.1-0.2-3l-8.9,8.1
			c0.3,1.1,0.9,2.1,1.5,2.7s1.6,1,2.7,1c1.8,0,3-0.7,3.8-2.2S1093.3,765.7,1093.3,762.7z"/>
		<path d="M1101.9,771h4.7v-15.8l-4.8,3.4l-1.2-1.7l6.6-4.7h1.7V771h4.6v2.2h-11.6V771z"/>
		<path d="M1131.7,757.5c0,1.8-0.9,3.9-2.6,6.2c-1.7,2.3-4.2,4.7-7.3,7.4h10.6v2.2H1119V771c0.4-0.4,0.9-0.8,1.6-1.4
			c0.7-0.6,1.4-1.2,2.1-1.9c0.8-0.7,1.5-1.5,2.3-2.3c0.8-0.8,1.5-1.7,2.1-2.5c0.6-0.9,1.2-1.7,1.6-2.6c0.4-0.9,0.6-1.7,0.6-2.5
			c0-1.2-0.3-2.1-0.9-2.8c-0.6-0.7-1.6-1-2.8-1c-1.1,0-2,0.1-2.7,0.4c-0.7,0.2-1.4,0.6-2,1l-1-1.6c0.9-0.6,1.9-1.1,2.9-1.4
			s2.1-0.5,3.3-0.5c1.9,0,3.3,0.5,4.3,1.5C1131.2,754.4,1131.7,755.7,1131.7,757.5z"/>
		<path d="M1142.7,771.4c0.8,0,1.5-0.1,2.2-0.3s1.3-0.5,1.8-0.9c0.5-0.4,0.9-0.8,1.2-1.4c0.3-0.5,0.4-1.1,0.4-1.8
			c0-1.4-0.5-2.4-1.5-2.9c-1-0.6-2.3-0.9-3.9-0.9h-1.9v-1.4l5.9-7.5h-9v-2.2h11.9v2.2l-5.9,6.9h0.5c0.9,0,1.8,0.1,2.5,0.4
			c0.8,0.3,1.4,0.6,2,1.1c0.6,0.5,1,1.1,1.3,1.7s0.5,1.5,0.5,2.3c0,1.1-0.2,2-0.6,2.9s-1,1.5-1.7,2.1s-1.6,1-2.5,1.3
			c-1,0.3-2,0.4-3.1,0.4c-1,0-1.9-0.1-2.7-0.2c-0.8-0.2-1.4-0.3-2.1-0.6l0.6-2.1c0.5,0.2,1.1,0.4,1.8,0.6
			C1141,771.4,1141.8,771.4,1142.7,771.4z"/>
		<path d="M1171.3,766.6h-4v6.5h-2.4v-6.5h-9.7v-1.7l10.1-12.7h2v12.5h4V766.6z M1164.9,755.9l-6.9,8.7h6.9V755.9z"/>
		<path d="M1180.1,771.4c0.8,0,1.5-0.1,2.1-0.3c0.6-0.2,1.2-0.5,1.6-0.9c0.5-0.4,0.8-0.9,1-1.5c0.2-0.6,0.4-1.3,0.4-2
			c0-1.4-0.5-2.5-1.5-3.3s-2.4-1.1-4.2-1.1l-2.8,0.1v-10.3h10.3v2.2h-8.1v6.1l1.5-0.1c2.2,0,4,0.5,5.3,1.6s1.9,2.6,1.9,4.6
			c0,1.1-0.2,2.1-0.6,3c-0.4,0.9-0.9,1.6-1.6,2.2s-1.5,1-2.4,1.3c-0.9,0.3-1.9,0.4-3.1,0.4c-0.6,0-1.2,0-1.7-0.1
			c-0.5-0.1-1-0.2-1.5-0.3c-0.4-0.1-0.8-0.3-1.2-0.4c-0.3-0.1-0.6-0.3-0.7-0.4l1-1.9c0.3,0.2,0.9,0.4,1.6,0.7
			S1179,771.4,1180.1,771.4z"/>
		<path d="M1207.2,766.8c0,0.9-0.2,1.7-0.5,2.5c-0.3,0.8-0.8,1.5-1.4,2.1c-0.6,0.6-1.3,1.1-2.2,1.5s-1.9,0.6-3.1,0.6
			c-1.1,0-2.1-0.2-2.9-0.5s-1.6-0.8-2.3-1.5c-0.6-0.6-1.1-1.4-1.5-2.3c-0.4-0.9-0.5-1.9-0.5-3.1c0-1.9,0.3-3.7,0.8-5.3
			c0.6-1.7,1.3-3.2,2.3-4.4c1-1.3,2.2-2.3,3.5-3.1c1.4-0.8,2.9-1.3,4.5-1.4l0.4,1.9c-1.3,0.2-2.4,0.5-3.5,1.1s-2,1.3-2.7,2.2
			c-0.8,0.9-1.4,1.8-1.9,2.8c-0.5,1-0.8,2.1-0.9,3.2c0.2-0.3,0.4-0.5,0.7-0.8c0.3-0.3,0.7-0.5,1.1-0.7c0.4-0.2,0.9-0.4,1.4-0.5
			c0.5-0.1,1.1-0.2,1.7-0.2c1.1,0,2,0.1,2.9,0.4s1.6,0.7,2.1,1.2s1,1.2,1.4,1.9C1207.1,765.1,1207.2,765.9,1207.2,766.8z
			 M1204.8,767.1c0-1.4-0.4-2.5-1.2-3.2c-0.8-0.7-2-1.1-3.6-1.1c-0.6,0-1.1,0.1-1.6,0.2c-0.5,0.1-0.9,0.3-1.3,0.6
			c-0.4,0.2-0.7,0.5-1,0.8c-0.3,0.3-0.5,0.6-0.7,0.9c0,0.3-0.1,0.5-0.1,0.7s0,0.3,0,0.6c0,0.6,0.1,1.2,0.3,1.8
			c0.2,0.6,0.5,1.2,0.9,1.6c0.4,0.5,0.9,0.9,1.5,1.2c0.6,0.3,1.3,0.5,2.2,0.5c0.7,0,1.3-0.1,1.9-0.4c0.6-0.2,1-0.6,1.5-1
			c0.4-0.4,0.7-0.9,0.9-1.4S1204.8,767.7,1204.8,767.1z"/>
		<path d="M1213.4,773.2l9.2-18.8h-10.8v-2.2h13.3v2l-9.2,19H1213.4z"/>
		<path d="M1230.5,768.1c0-2.4,1.5-4.4,4.4-5.8c-0.6-0.3-1.1-0.6-1.6-0.9c-0.5-0.3-0.9-0.7-1.2-1.1c-0.4-0.4-0.6-0.9-0.8-1.4
			c-0.2-0.5-0.3-1.1-0.3-1.8c0-0.7,0.1-1.4,0.4-2.1c0.3-0.6,0.7-1.2,1.3-1.7s1.2-0.8,2-1.1c0.8-0.3,1.7-0.4,2.7-0.4
			c0.9,0,1.8,0.1,2.5,0.4s1.4,0.6,1.9,1c0.5,0.4,0.9,0.9,1.2,1.5c0.3,0.6,0.4,1.2,0.4,1.9c0,1.1-0.3,2.2-0.9,3.1
			c-0.6,1-1.5,1.8-2.7,2.6c0.6,0.3,1.1,0.6,1.6,1c0.5,0.3,0.9,0.7,1.3,1.1c0.4,0.4,0.7,0.9,0.9,1.4c0.2,0.5,0.3,1.1,0.3,1.8
			c0,0.8-0.2,1.6-0.5,2.4c-0.3,0.7-0.7,1.4-1.3,1.9c-0.6,0.5-1.3,0.9-2.2,1.2c-0.9,0.3-1.9,0.4-3,0.4c-1.1,0-2-0.1-2.8-0.4
			c-0.8-0.3-1.5-0.7-2.1-1.2c-0.6-0.5-1-1.1-1.2-1.7S1230.5,768.8,1230.5,768.1z M1241.6,767.8c0-0.6-0.1-1.1-0.4-1.5
			c-0.3-0.5-0.6-0.9-1.1-1.2c-0.4-0.4-1-0.7-1.5-1s-1.2-0.6-1.8-0.9c-1.4,0.7-2.5,1.5-3.1,2.3s-0.9,1.6-0.9,2.4c0,0.5,0.1,1,0.3,1.4
			s0.5,0.8,0.8,1.2s0.8,0.6,1.4,0.8c0.5,0.2,1.2,0.3,1.9,0.3c0.6,0,1.1-0.1,1.7-0.2c0.5-0.2,1-0.4,1.4-0.7c0.4-0.3,0.7-0.7,1-1.2
			C1241.5,768.9,1241.6,768.4,1241.6,767.8z M1233.3,756.9c0,0.6,0.1,1.1,0.4,1.5c0.3,0.4,0.6,0.8,1,1.2s0.9,0.7,1.5,1
			s1.1,0.6,1.8,0.9c1.1-0.7,1.9-1.4,2.4-2.1s0.8-1.5,0.8-2.3c0-0.5-0.1-0.9-0.3-1.3c-0.2-0.4-0.5-0.7-0.8-1
			c-0.3-0.3-0.8-0.5-1.2-0.6c-0.5-0.2-0.9-0.2-1.4-0.2c-0.6,0-1.2,0.1-1.7,0.3s-0.9,0.4-1.3,0.7s-0.6,0.6-0.8,1
			C1233.4,756.2,1233.3,756.6,1233.3,756.9z"/>
		<path d="M1248.7,758.5c0-0.9,0.2-1.8,0.5-2.6c0.3-0.8,0.8-1.5,1.4-2.1c0.6-0.6,1.4-1.1,2.3-1.4c0.9-0.3,2-0.5,3.2-0.5
			c1.1,0,2.1,0.2,3,0.5c0.9,0.4,1.6,0.9,2.2,1.5c0.6,0.7,1.1,1.4,1.4,2.4c0.3,0.9,0.5,2,0.5,3.1c0,2.2-0.3,4.2-0.8,5.9
			s-1.3,3.1-2.3,4.3c-1,1.2-2.2,2.1-3.6,2.8c-1.4,0.7-2.9,1.1-4.5,1.2l-0.5-1.9c1.3-0.1,2.5-0.5,3.5-1c1-0.5,1.9-1.1,2.7-1.9
			c0.8-0.8,1.4-1.7,1.9-2.7c0.5-1,0.8-2.1,1-3.3c-0.3,0.3-0.6,0.6-1,0.9c-0.3,0.2-0.7,0.4-1.1,0.6c-0.4,0.1-0.8,0.2-1.3,0.3
			c-0.5,0.1-1,0.1-1.7,0.1c-0.9,0-1.8-0.1-2.6-0.4s-1.5-0.7-2.1-1.2c-0.6-0.5-1.1-1.2-1.5-1.9S1248.7,759.5,1248.7,758.5z
			 M1251.2,758.3c0,1.4,0.4,2.5,1.3,3.2c0.9,0.7,2,1.1,3.5,1.1c1.1,0,2.1-0.2,2.9-0.5c0.8-0.3,1.4-0.8,1.7-1.3
			c0-0.3,0.1-0.5,0.1-0.7c0-0.2,0-0.4,0-0.6c0-0.7-0.1-1.4-0.3-2.1s-0.5-1.3-0.9-1.8c-0.4-0.5-0.9-1-1.5-1.3
			c-0.6-0.3-1.4-0.5-2.3-0.5c-1.4,0-2.6,0.4-3.3,1.2C1251.6,755.7,1251.2,756.8,1251.2,758.3z"/>
	</g>
</g>
</svg>
